%TF.GenerationSoftware,KiCad,Pcbnew,(6.0.5)*%
%TF.CreationDate,2022-07-04T14:56:29-04:00*%
%TF.ProjectId,magdilocks,6d616764-696c-46f6-936b-732e6b696361,rev?*%
%TF.SameCoordinates,Original*%
%TF.FileFunction,AssemblyDrawing,Top*%
%FSLAX46Y46*%
G04 Gerber Fmt 4.6, Leading zero omitted, Abs format (unit mm)*
G04 Created by KiCad (PCBNEW (6.0.5)) date 2022-07-04 14:56:29*
%MOMM*%
%LPD*%
G01*
G04 APERTURE LIST*
%ADD10C,0.150000*%
%ADD11C,0.105000*%
%ADD12C,0.100000*%
G04 APERTURE END LIST*
D10*
%TO.C,J2*%
X97185714Y-129342857D02*
X97233333Y-129295238D01*
X97376190Y-129247619D01*
X97471428Y-129247619D01*
X97614285Y-129295238D01*
X97709523Y-129390476D01*
X97757142Y-129485714D01*
X97804761Y-129676190D01*
X97804761Y-129819047D01*
X97757142Y-130009523D01*
X97709523Y-130104761D01*
X97614285Y-130200000D01*
X97471428Y-130247619D01*
X97376190Y-130247619D01*
X97233333Y-130200000D01*
X97185714Y-130152380D01*
X96614285Y-129247619D02*
X96709523Y-129295238D01*
X96757142Y-129342857D01*
X96804761Y-129438095D01*
X96804761Y-129723809D01*
X96757142Y-129819047D01*
X96709523Y-129866666D01*
X96614285Y-129914285D01*
X96471428Y-129914285D01*
X96376190Y-129866666D01*
X96328571Y-129819047D01*
X96280952Y-129723809D01*
X96280952Y-129438095D01*
X96328571Y-129342857D01*
X96376190Y-129295238D01*
X96471428Y-129247619D01*
X96614285Y-129247619D01*
X95852380Y-129914285D02*
X95852380Y-129247619D01*
X95852380Y-129819047D02*
X95804761Y-129866666D01*
X95709523Y-129914285D01*
X95566666Y-129914285D01*
X95471428Y-129866666D01*
X95423809Y-129771428D01*
X95423809Y-129247619D01*
X94947619Y-129914285D02*
X94947619Y-129247619D01*
X94947619Y-129819047D02*
X94900000Y-129866666D01*
X94804761Y-129914285D01*
X94661904Y-129914285D01*
X94566666Y-129866666D01*
X94519047Y-129771428D01*
X94519047Y-129247619D01*
X94280952Y-129152380D02*
X93519047Y-129152380D01*
X92757142Y-129247619D02*
X93328571Y-129247619D01*
X93042857Y-129247619D02*
X93042857Y-130247619D01*
X93138095Y-130104761D01*
X93233333Y-130009523D01*
X93328571Y-129961904D01*
X92423809Y-129247619D02*
X91900000Y-129914285D01*
X92423809Y-129914285D02*
X91900000Y-129247619D01*
X91614285Y-130247619D02*
X90995238Y-130247619D01*
X91328571Y-129866666D01*
X91185714Y-129866666D01*
X91090476Y-129819047D01*
X91042857Y-129771428D01*
X90995238Y-129676190D01*
X90995238Y-129438095D01*
X91042857Y-129342857D01*
X91090476Y-129295238D01*
X91185714Y-129247619D01*
X91471428Y-129247619D01*
X91566666Y-129295238D01*
X91614285Y-129342857D01*
%TO.C,J3*%
X97185714Y-116342857D02*
X97233333Y-116295238D01*
X97376190Y-116247619D01*
X97471428Y-116247619D01*
X97614285Y-116295238D01*
X97709523Y-116390476D01*
X97757142Y-116485714D01*
X97804761Y-116676190D01*
X97804761Y-116819047D01*
X97757142Y-117009523D01*
X97709523Y-117104761D01*
X97614285Y-117200000D01*
X97471428Y-117247619D01*
X97376190Y-117247619D01*
X97233333Y-117200000D01*
X97185714Y-117152380D01*
X96614285Y-116247619D02*
X96709523Y-116295238D01*
X96757142Y-116342857D01*
X96804761Y-116438095D01*
X96804761Y-116723809D01*
X96757142Y-116819047D01*
X96709523Y-116866666D01*
X96614285Y-116914285D01*
X96471428Y-116914285D01*
X96376190Y-116866666D01*
X96328571Y-116819047D01*
X96280952Y-116723809D01*
X96280952Y-116438095D01*
X96328571Y-116342857D01*
X96376190Y-116295238D01*
X96471428Y-116247619D01*
X96614285Y-116247619D01*
X95852380Y-116914285D02*
X95852380Y-116247619D01*
X95852380Y-116819047D02*
X95804761Y-116866666D01*
X95709523Y-116914285D01*
X95566666Y-116914285D01*
X95471428Y-116866666D01*
X95423809Y-116771428D01*
X95423809Y-116247619D01*
X94947619Y-116914285D02*
X94947619Y-116247619D01*
X94947619Y-116819047D02*
X94900000Y-116866666D01*
X94804761Y-116914285D01*
X94661904Y-116914285D01*
X94566666Y-116866666D01*
X94519047Y-116771428D01*
X94519047Y-116247619D01*
X94280952Y-116152380D02*
X93519047Y-116152380D01*
X92757142Y-116247619D02*
X93328571Y-116247619D01*
X93042857Y-116247619D02*
X93042857Y-117247619D01*
X93138095Y-117104761D01*
X93233333Y-117009523D01*
X93328571Y-116961904D01*
X92423809Y-116247619D02*
X91900000Y-116914285D01*
X92423809Y-116914285D02*
X91900000Y-116247619D01*
X91614285Y-117247619D02*
X90995238Y-117247619D01*
X91328571Y-116866666D01*
X91185714Y-116866666D01*
X91090476Y-116819047D01*
X91042857Y-116771428D01*
X90995238Y-116676190D01*
X90995238Y-116438095D01*
X91042857Y-116342857D01*
X91090476Y-116295238D01*
X91185714Y-116247619D01*
X91471428Y-116247619D01*
X91566666Y-116295238D01*
X91614285Y-116342857D01*
%TO.C,C1*%
X99057142Y-128690476D02*
X99104761Y-128738095D01*
X99152380Y-128880952D01*
X99152380Y-128976190D01*
X99104761Y-129119047D01*
X99009523Y-129214285D01*
X98914285Y-129261904D01*
X98723809Y-129309523D01*
X98580952Y-129309523D01*
X98390476Y-129261904D01*
X98295238Y-129214285D01*
X98200000Y-129119047D01*
X98152380Y-128976190D01*
X98152380Y-128880952D01*
X98200000Y-128738095D01*
X98247619Y-128690476D01*
X97357142Y-129166666D02*
X97404761Y-129214285D01*
X97452380Y-129357142D01*
X97452380Y-129452380D01*
X97404761Y-129595238D01*
X97309523Y-129690476D01*
X97214285Y-129738095D01*
X97023809Y-129785714D01*
X96880952Y-129785714D01*
X96690476Y-129738095D01*
X96595238Y-129690476D01*
X96500000Y-129595238D01*
X96452380Y-129452380D01*
X96452380Y-129357142D01*
X96500000Y-129214285D01*
X96547619Y-129166666D01*
X97452380Y-128214285D02*
X97452380Y-128785714D01*
X97452380Y-128500000D02*
X96452380Y-128500000D01*
X96595238Y-128595238D01*
X96690476Y-128690476D01*
X96738095Y-128785714D01*
%TO.C,R4*%
X93702380Y-127940476D02*
X93226190Y-128273809D01*
X93702380Y-128511904D02*
X92702380Y-128511904D01*
X92702380Y-128130952D01*
X92750000Y-128035714D01*
X92797619Y-127988095D01*
X92892857Y-127940476D01*
X93035714Y-127940476D01*
X93130952Y-127988095D01*
X93178571Y-128035714D01*
X93226190Y-128130952D01*
X93226190Y-128511904D01*
X95202380Y-128416666D02*
X94726190Y-128750000D01*
X95202380Y-128988095D02*
X94202380Y-128988095D01*
X94202380Y-128607142D01*
X94250000Y-128511904D01*
X94297619Y-128464285D01*
X94392857Y-128416666D01*
X94535714Y-128416666D01*
X94630952Y-128464285D01*
X94678571Y-128511904D01*
X94726190Y-128607142D01*
X94726190Y-128988095D01*
X94535714Y-127559523D02*
X95202380Y-127559523D01*
X94154761Y-127797619D02*
X94869047Y-128035714D01*
X94869047Y-127416666D01*
%TO.C,R2*%
X96702380Y-121440476D02*
X96226190Y-121773809D01*
X96702380Y-122011904D02*
X95702380Y-122011904D01*
X95702380Y-121630952D01*
X95750000Y-121535714D01*
X95797619Y-121488095D01*
X95892857Y-121440476D01*
X96035714Y-121440476D01*
X96130952Y-121488095D01*
X96178571Y-121535714D01*
X96226190Y-121630952D01*
X96226190Y-122011904D01*
X95202380Y-121916666D02*
X94726190Y-122250000D01*
X95202380Y-122488095D02*
X94202380Y-122488095D01*
X94202380Y-122107142D01*
X94250000Y-122011904D01*
X94297619Y-121964285D01*
X94392857Y-121916666D01*
X94535714Y-121916666D01*
X94630952Y-121964285D01*
X94678571Y-122011904D01*
X94726190Y-122107142D01*
X94726190Y-122488095D01*
X94297619Y-121535714D02*
X94250000Y-121488095D01*
X94202380Y-121392857D01*
X94202380Y-121154761D01*
X94250000Y-121059523D01*
X94297619Y-121011904D01*
X94392857Y-120964285D01*
X94488095Y-120964285D01*
X94630952Y-121011904D01*
X95202380Y-121583333D01*
X95202380Y-120964285D01*
D11*
%TO.C,U2*%
X104316666Y-126050000D02*
X104883333Y-126050000D01*
X104950000Y-126016666D01*
X104983333Y-125983333D01*
X105016666Y-125916666D01*
X105016666Y-125783333D01*
X104983333Y-125716666D01*
X104950000Y-125683333D01*
X104883333Y-125650000D01*
X104316666Y-125650000D01*
X105083333Y-125483333D02*
X105083333Y-124950000D01*
X104983333Y-124816666D02*
X105016666Y-124716666D01*
X105016666Y-124550000D01*
X104983333Y-124483333D01*
X104950000Y-124450000D01*
X104883333Y-124416666D01*
X104816666Y-124416666D01*
X104750000Y-124450000D01*
X104716666Y-124483333D01*
X104683333Y-124550000D01*
X104650000Y-124683333D01*
X104616666Y-124750000D01*
X104583333Y-124783333D01*
X104516666Y-124816666D01*
X104450000Y-124816666D01*
X104383333Y-124783333D01*
X104350000Y-124750000D01*
X104316666Y-124683333D01*
X104316666Y-124516666D01*
X104350000Y-124416666D01*
X105016666Y-124116666D02*
X104550000Y-124116666D01*
X104316666Y-124116666D02*
X104350000Y-124150000D01*
X104383333Y-124116666D01*
X104350000Y-124083333D01*
X104316666Y-124116666D01*
X104383333Y-124116666D01*
X104316666Y-123850000D02*
X104316666Y-123383333D01*
X105016666Y-123683333D01*
X104383333Y-123150000D02*
X104350000Y-123116666D01*
X104316666Y-123050000D01*
X104316666Y-122883333D01*
X104350000Y-122816666D01*
X104383333Y-122783333D01*
X104450000Y-122750000D01*
X104516666Y-122750000D01*
X104616666Y-122783333D01*
X105016666Y-123183333D01*
X105016666Y-122750000D01*
X105016666Y-122083333D02*
X105016666Y-122483333D01*
X105016666Y-122283333D02*
X104316666Y-122283333D01*
X104416666Y-122350000D01*
X104483333Y-122416666D01*
X104516666Y-122483333D01*
X104316666Y-121650000D02*
X104316666Y-121583333D01*
X104350000Y-121516666D01*
X104383333Y-121483333D01*
X104450000Y-121450000D01*
X104583333Y-121416666D01*
X104750000Y-121416666D01*
X104883333Y-121450000D01*
X104950000Y-121483333D01*
X104983333Y-121516666D01*
X105016666Y-121583333D01*
X105016666Y-121650000D01*
X104983333Y-121716666D01*
X104950000Y-121750000D01*
X104883333Y-121783333D01*
X104750000Y-121816666D01*
X104583333Y-121816666D01*
X104450000Y-121783333D01*
X104383333Y-121750000D01*
X104350000Y-121716666D01*
X104316666Y-121650000D01*
D10*
X101238095Y-123202380D02*
X101238095Y-124011904D01*
X101285714Y-124107142D01*
X101333333Y-124154761D01*
X101428571Y-124202380D01*
X101619047Y-124202380D01*
X101714285Y-124154761D01*
X101761904Y-124107142D01*
X101809523Y-124011904D01*
X101809523Y-123202380D01*
X102238095Y-123297619D02*
X102285714Y-123250000D01*
X102380952Y-123202380D01*
X102619047Y-123202380D01*
X102714285Y-123250000D01*
X102761904Y-123297619D01*
X102809523Y-123392857D01*
X102809523Y-123488095D01*
X102761904Y-123630952D01*
X102190476Y-124202380D01*
X102809523Y-124202380D01*
%TO.C,C2*%
X95657142Y-124940476D02*
X95704761Y-124988095D01*
X95752380Y-125130952D01*
X95752380Y-125226190D01*
X95704761Y-125369047D01*
X95609523Y-125464285D01*
X95514285Y-125511904D01*
X95323809Y-125559523D01*
X95180952Y-125559523D01*
X94990476Y-125511904D01*
X94895238Y-125464285D01*
X94800000Y-125369047D01*
X94752380Y-125226190D01*
X94752380Y-125130952D01*
X94800000Y-124988095D01*
X94847619Y-124940476D01*
X97357142Y-125416666D02*
X97404761Y-125464285D01*
X97452380Y-125607142D01*
X97452380Y-125702380D01*
X97404761Y-125845238D01*
X97309523Y-125940476D01*
X97214285Y-125988095D01*
X97023809Y-126035714D01*
X96880952Y-126035714D01*
X96690476Y-125988095D01*
X96595238Y-125940476D01*
X96500000Y-125845238D01*
X96452380Y-125702380D01*
X96452380Y-125607142D01*
X96500000Y-125464285D01*
X96547619Y-125416666D01*
X96547619Y-125035714D02*
X96500000Y-124988095D01*
X96452380Y-124892857D01*
X96452380Y-124654761D01*
X96500000Y-124559523D01*
X96547619Y-124511904D01*
X96642857Y-124464285D01*
X96738095Y-124464285D01*
X96880952Y-124511904D01*
X97452380Y-125083333D01*
X97452380Y-124464285D01*
%TO.C,R3*%
X98702380Y-121440476D02*
X98226190Y-121773809D01*
X98702380Y-122011904D02*
X97702380Y-122011904D01*
X97702380Y-121630952D01*
X97750000Y-121535714D01*
X97797619Y-121488095D01*
X97892857Y-121440476D01*
X98035714Y-121440476D01*
X98130952Y-121488095D01*
X98178571Y-121535714D01*
X98226190Y-121630952D01*
X98226190Y-122011904D01*
X97202380Y-121916666D02*
X96726190Y-122250000D01*
X97202380Y-122488095D02*
X96202380Y-122488095D01*
X96202380Y-122107142D01*
X96250000Y-122011904D01*
X96297619Y-121964285D01*
X96392857Y-121916666D01*
X96535714Y-121916666D01*
X96630952Y-121964285D01*
X96678571Y-122011904D01*
X96726190Y-122107142D01*
X96726190Y-122488095D01*
X96202380Y-121583333D02*
X96202380Y-120964285D01*
X96583333Y-121297619D01*
X96583333Y-121154761D01*
X96630952Y-121059523D01*
X96678571Y-121011904D01*
X96773809Y-120964285D01*
X97011904Y-120964285D01*
X97107142Y-121011904D01*
X97154761Y-121059523D01*
X97202380Y-121154761D01*
X97202380Y-121440476D01*
X97154761Y-121535714D01*
X97107142Y-121583333D01*
%TO.C,R1*%
X93702380Y-124690476D02*
X93226190Y-125023809D01*
X93702380Y-125261904D02*
X92702380Y-125261904D01*
X92702380Y-124880952D01*
X92750000Y-124785714D01*
X92797619Y-124738095D01*
X92892857Y-124690476D01*
X93035714Y-124690476D01*
X93130952Y-124738095D01*
X93178571Y-124785714D01*
X93226190Y-124880952D01*
X93226190Y-125261904D01*
X95202380Y-125166666D02*
X94726190Y-125500000D01*
X95202380Y-125738095D02*
X94202380Y-125738095D01*
X94202380Y-125357142D01*
X94250000Y-125261904D01*
X94297619Y-125214285D01*
X94392857Y-125166666D01*
X94535714Y-125166666D01*
X94630952Y-125214285D01*
X94678571Y-125261904D01*
X94726190Y-125357142D01*
X94726190Y-125738095D01*
X95202380Y-124214285D02*
X95202380Y-124785714D01*
X95202380Y-124500000D02*
X94202380Y-124500000D01*
X94345238Y-124595238D01*
X94440476Y-124690476D01*
X94488095Y-124785714D01*
%TO.C,U1*%
X106000000Y-124297619D02*
X106000000Y-123488095D01*
X105952380Y-123392857D01*
X105904761Y-123345238D01*
X105809523Y-123297619D01*
X105619047Y-123297619D01*
X105523809Y-123345238D01*
X105476190Y-123392857D01*
X105428571Y-123488095D01*
X105428571Y-124297619D01*
X105190476Y-123202380D02*
X104428571Y-123202380D01*
X104190476Y-123297619D02*
X104190476Y-124297619D01*
X103952380Y-124297619D01*
X103809523Y-124250000D01*
X103714285Y-124154761D01*
X103666666Y-124059523D01*
X103619047Y-123869047D01*
X103619047Y-123726190D01*
X103666666Y-123535714D01*
X103714285Y-123440476D01*
X103809523Y-123345238D01*
X103952380Y-123297619D01*
X104190476Y-123297619D01*
X102619047Y-123297619D02*
X102952380Y-123773809D01*
X103190476Y-123297619D02*
X103190476Y-124297619D01*
X102809523Y-124297619D01*
X102714285Y-124250000D01*
X102666666Y-124202380D01*
X102619047Y-124107142D01*
X102619047Y-123964285D01*
X102666666Y-123869047D01*
X102714285Y-123821428D01*
X102809523Y-123773809D01*
X103190476Y-123773809D01*
X102333333Y-124297619D02*
X102000000Y-123297619D01*
X101666666Y-124297619D01*
X100857142Y-124297619D02*
X101333333Y-124297619D01*
X101380952Y-123821428D01*
X101333333Y-123869047D01*
X101238095Y-123916666D01*
X101000000Y-123916666D01*
X100904761Y-123869047D01*
X100857142Y-123821428D01*
X100809523Y-123726190D01*
X100809523Y-123488095D01*
X100857142Y-123392857D01*
X100904761Y-123345238D01*
X101000000Y-123297619D01*
X101238095Y-123297619D01*
X101333333Y-123345238D01*
X101380952Y-123392857D01*
X100190476Y-124297619D02*
X100095238Y-124297619D01*
X100000000Y-124250000D01*
X99952380Y-124202380D01*
X99904761Y-124107142D01*
X99857142Y-123916666D01*
X99857142Y-123678571D01*
X99904761Y-123488095D01*
X99952380Y-123392857D01*
X100000000Y-123345238D01*
X100095238Y-123297619D01*
X100190476Y-123297619D01*
X100285714Y-123345238D01*
X100333333Y-123392857D01*
X100380952Y-123488095D01*
X100428571Y-123678571D01*
X100428571Y-123916666D01*
X100380952Y-124107142D01*
X100333333Y-124202380D01*
X100285714Y-124250000D01*
X100190476Y-124297619D01*
X98952380Y-124297619D02*
X99428571Y-124297619D01*
X99476190Y-123821428D01*
X99428571Y-123869047D01*
X99333333Y-123916666D01*
X99095238Y-123916666D01*
X99000000Y-123869047D01*
X98952380Y-123821428D01*
X98904761Y-123726190D01*
X98904761Y-123488095D01*
X98952380Y-123392857D01*
X99000000Y-123345238D01*
X99095238Y-123297619D01*
X99333333Y-123297619D01*
X99428571Y-123345238D01*
X99476190Y-123392857D01*
X98571428Y-124297619D02*
X97952380Y-124297619D01*
X98285714Y-123916666D01*
X98142857Y-123916666D01*
X98047619Y-123869047D01*
X98000000Y-123821428D01*
X97952380Y-123726190D01*
X97952380Y-123488095D01*
X98000000Y-123392857D01*
X98047619Y-123345238D01*
X98142857Y-123297619D01*
X98428571Y-123297619D01*
X98523809Y-123345238D01*
X98571428Y-123392857D01*
D12*
%TO.C,J2*%
X98135000Y-131100000D02*
X94325000Y-131100000D01*
X94325000Y-132900000D02*
X94325000Y-131100000D01*
X98135000Y-132900000D02*
X98135000Y-131100000D01*
X98135000Y-132900000D02*
X94325000Y-132900000D01*
%TO.C,J3*%
X98135000Y-119900000D02*
X98135000Y-118100000D01*
X98135000Y-119900000D02*
X94325000Y-119900000D01*
X94325000Y-119900000D02*
X94325000Y-118100000D01*
X98135000Y-118100000D02*
X94325000Y-118100000D01*
%TO.C,J1*%
X100900000Y-121825000D02*
X100900000Y-125635000D01*
X100900000Y-121825000D02*
X99100000Y-121825000D01*
X100900000Y-125635000D02*
X99100000Y-125635000D01*
X99100000Y-121825000D02*
X99100000Y-125635000D01*
%TO.C,C1*%
X97925000Y-127475000D02*
X96075000Y-127475000D01*
X96075000Y-130525000D02*
X96075000Y-127475000D01*
X97925000Y-130525000D02*
X96075000Y-130525000D01*
X97925000Y-130525000D02*
X97925000Y-127475000D01*
%TO.C,R4*%
X95450000Y-129300000D02*
X94050000Y-129300000D01*
X94050000Y-127200000D02*
X94050000Y-129300000D01*
X95450000Y-127200000D02*
X95450000Y-129300000D01*
X95450000Y-127200000D02*
X94050000Y-127200000D01*
%TO.C,R2*%
X95450000Y-122800000D02*
X95450000Y-120700000D01*
X94050000Y-122800000D02*
X94050000Y-120700000D01*
X94050000Y-120700000D02*
X95450000Y-120700000D01*
X94050000Y-122800000D02*
X95450000Y-122800000D01*
%TO.C,U2*%
X100837500Y-124650000D02*
X103550000Y-124650000D01*
X100837500Y-124650000D02*
X100450000Y-124262500D01*
X100450000Y-122850000D02*
X103550000Y-122850000D01*
X100450000Y-124262500D02*
X100450000Y-122850000D01*
X103550000Y-124650000D02*
X103550000Y-122850000D01*
%TO.C,C2*%
X96075000Y-126775000D02*
X97925000Y-126775000D01*
X96075000Y-123725000D02*
X97925000Y-123725000D01*
X97925000Y-123725000D02*
X97925000Y-126775000D01*
X96075000Y-123725000D02*
X96075000Y-126775000D01*
%TO.C,R3*%
X96050000Y-122800000D02*
X96050000Y-120700000D01*
X96050000Y-122800000D02*
X97450000Y-122800000D01*
X96050000Y-120700000D02*
X97450000Y-120700000D01*
X97450000Y-122800000D02*
X97450000Y-120700000D01*
%TO.C,R1*%
X94050000Y-123950000D02*
X94050000Y-126050000D01*
X95450000Y-126050000D02*
X94050000Y-126050000D01*
X95450000Y-123950000D02*
X94050000Y-123950000D01*
X95450000Y-123950000D02*
X95450000Y-126050000D01*
%TO.C,U1*%
X103520000Y-124450000D02*
X103520000Y-123550000D01*
X103520000Y-124450000D02*
X100480000Y-124450000D01*
X100480000Y-124450000D02*
X100480000Y-123050000D01*
X103520000Y-123550000D02*
X102900000Y-123050000D01*
X102900000Y-123050000D02*
X100480000Y-123050000D01*
%TD*%
M02*
