%TF.GenerationSoftware,KiCad,Pcbnew,(6.0.5)*%
%TF.CreationDate,2022-07-05T13:03:16-04:00*%
%TF.ProjectId,magdilocks,6d616764-696c-46f6-936b-732e6b696361,rev?*%
%TF.SameCoordinates,Original*%
%TF.FileFunction,Copper,L2,Bot*%
%TF.FilePolarity,Positive*%
%FSLAX46Y46*%
G04 Gerber Fmt 4.6, Leading zero omitted, Abs format (unit mm)*
G04 Created by KiCad (PCBNEW (6.0.5)) date 2022-07-05 13:03:16*
%MOMM*%
%LPD*%
G01*
G04 APERTURE LIST*
%TA.AperFunction,ComponentPad*%
%ADD10O,1.700000X1.150000*%
%TD*%
%TA.AperFunction,ViaPad*%
%ADD11C,0.800000*%
%TD*%
%TA.AperFunction,Conductor*%
%ADD12C,0.250000*%
%TD*%
G04 APERTURE END LIST*
D10*
%TO.P,J1,1*%
%TO.N,+3V3*%
X99605000Y-122460000D03*
%TO.P,J1,2*%
%TO.N,Net-(J1-Pad2)*%
X99605000Y-123730000D03*
%TO.P,J1,3*%
%TO.N,GND*%
X99605000Y-125000000D03*
%TD*%
D11*
%TO.N,GND*%
X103000000Y-124250000D03*
X103000000Y-125250000D03*
X98000000Y-125300000D03*
X97000000Y-125300000D03*
%TO.N,+3V3*%
X102000000Y-122399500D03*
%TD*%
D12*
%TO.N,+3V3*%
X102000000Y-122399500D02*
X100060500Y-122399500D01*
X100060500Y-122399500D02*
X100000000Y-122460000D01*
X100210000Y-122250000D02*
X100000000Y-122460000D01*
%TD*%
%TA.AperFunction,Conductor*%
%TO.N,GND*%
G36*
X98668926Y-121820502D02*
G01*
X98715419Y-121874158D01*
X98725523Y-121944432D01*
X98707190Y-121994014D01*
X98628575Y-122117892D01*
X98626210Y-122124535D01*
X98586836Y-122235109D01*
X98570212Y-122281793D01*
X98569379Y-122288779D01*
X98569378Y-122288783D01*
X98557153Y-122391312D01*
X98549612Y-122454552D01*
X98567798Y-122627581D01*
X98570067Y-122634247D01*
X98570068Y-122634250D01*
X98607772Y-122745002D01*
X98623867Y-122792281D01*
X98715031Y-122940467D01*
X98778813Y-123005598D01*
X98780027Y-123006838D01*
X98813398Y-123069503D01*
X98807592Y-123140262D01*
X98778787Y-123184402D01*
X98726800Y-123236027D01*
X98726797Y-123236031D01*
X98721799Y-123240994D01*
X98628575Y-123387892D01*
X98570212Y-123551793D01*
X98569379Y-123558779D01*
X98569378Y-123558783D01*
X98554699Y-123681893D01*
X98549612Y-123724552D01*
X98567798Y-123897581D01*
X98570067Y-123904247D01*
X98570068Y-123904250D01*
X98623867Y-124062281D01*
X98622553Y-124062728D01*
X98632280Y-124125289D01*
X98603527Y-124190203D01*
X98585194Y-124207875D01*
X98584462Y-124208450D01*
X98575810Y-124216689D01*
X98448240Y-124363701D01*
X98441298Y-124373433D01*
X98343823Y-124541924D01*
X98338850Y-124552785D01*
X98275935Y-124733962D01*
X98277082Y-124742007D01*
X98290651Y-124746000D01*
X100914686Y-124746000D01*
X100928217Y-124742027D01*
X100929572Y-124732601D01*
X100910060Y-124651639D01*
X100906171Y-124640344D01*
X100825600Y-124463137D01*
X100819653Y-124452795D01*
X100707021Y-124294013D01*
X100699228Y-124284985D01*
X100613779Y-124203185D01*
X100578403Y-124141630D01*
X100582211Y-124069900D01*
X100637426Y-123914841D01*
X100637427Y-123914839D01*
X100639788Y-123908207D01*
X100640621Y-123901221D01*
X100640622Y-123901217D01*
X100659554Y-123742441D01*
X100660388Y-123735448D01*
X100642202Y-123562419D01*
X100586133Y-123397719D01*
X100494969Y-123249533D01*
X100429972Y-123183161D01*
X100396602Y-123120497D01*
X100402408Y-123049738D01*
X100431213Y-123005598D01*
X100483200Y-122953973D01*
X100483203Y-122953969D01*
X100488201Y-122949006D01*
X100504048Y-122924036D01*
X100577649Y-122808058D01*
X100581425Y-122802108D01*
X100583709Y-122795694D01*
X100631487Y-122743306D01*
X100696893Y-122725000D01*
X101430714Y-122725000D01*
X101498835Y-122745002D01*
X101530677Y-122774296D01*
X101571718Y-122827782D01*
X101697159Y-122924036D01*
X101843238Y-122984544D01*
X102000000Y-123005182D01*
X102008188Y-123004104D01*
X102148574Y-122985622D01*
X102156762Y-122984544D01*
X102302841Y-122924036D01*
X102428282Y-122827782D01*
X102524536Y-122702341D01*
X102585044Y-122556262D01*
X102605682Y-122399500D01*
X102585044Y-122242738D01*
X102524536Y-122096659D01*
X102469322Y-122024702D01*
X102452826Y-122003204D01*
X102427226Y-121936983D01*
X102441491Y-121867434D01*
X102491092Y-121816639D01*
X102552789Y-121800500D01*
X103262920Y-121800500D01*
X103291155Y-121803705D01*
X103299641Y-121805656D01*
X103299642Y-121805656D01*
X103298564Y-121810345D01*
X103339799Y-121822453D01*
X103386292Y-121876109D01*
X103394570Y-121900641D01*
X103396394Y-121908699D01*
X103399500Y-121936504D01*
X103399500Y-125562920D01*
X103396295Y-125591155D01*
X103394344Y-125599641D01*
X103394344Y-125599642D01*
X103389655Y-125598564D01*
X103377547Y-125639799D01*
X103323891Y-125686292D01*
X103299359Y-125694570D01*
X103291298Y-125696394D01*
X103263496Y-125699500D01*
X100944969Y-125699500D01*
X100876848Y-125679498D01*
X100830355Y-125625842D01*
X100820251Y-125555568D01*
X100835905Y-125510404D01*
X100866177Y-125458076D01*
X100871150Y-125447215D01*
X100934065Y-125266038D01*
X100932918Y-125257993D01*
X100919349Y-125254000D01*
X98295314Y-125254000D01*
X98281783Y-125257973D01*
X98280428Y-125267399D01*
X98299940Y-125348361D01*
X98303829Y-125359656D01*
X98377346Y-125521349D01*
X98387332Y-125591640D01*
X98357732Y-125656171D01*
X98297941Y-125694455D01*
X98262645Y-125699500D01*
X96737080Y-125699500D01*
X96708845Y-125696295D01*
X96700359Y-125694344D01*
X96700358Y-125694344D01*
X96701441Y-125689633D01*
X96660281Y-125677547D01*
X96613788Y-125623891D01*
X96605557Y-125599568D01*
X96603655Y-125591229D01*
X96600500Y-125563210D01*
X96600500Y-121937371D01*
X96603755Y-121908918D01*
X96605656Y-121900717D01*
X96608612Y-121901402D01*
X96630998Y-121848502D01*
X96689624Y-121808458D01*
X96700679Y-121805421D01*
X96708703Y-121803605D01*
X96736504Y-121800500D01*
X98600805Y-121800500D01*
X98668926Y-121820502D01*
G37*
%TD.AperFunction*%
%TD*%
M02*
