%TF.GenerationSoftware,KiCad,Pcbnew,(6.0.5)*%
%TF.CreationDate,2022-07-02T16:25:46-04:00*%
%TF.ProjectId,magdilocks,6d616764-696c-46f6-936b-732e6b696361,rev?*%
%TF.SameCoordinates,Original*%
%TF.FileFunction,Profile,NP*%
%FSLAX46Y46*%
G04 Gerber Fmt 4.6, Leading zero omitted, Abs format (unit mm)*
G04 Created by KiCad (PCBNEW (6.0.5)) date 2022-07-02 16:25:46*
%MOMM*%
%LPD*%
G01*
G04 APERTURE LIST*
%TA.AperFunction,Profile*%
%ADD10C,0.100000*%
%TD*%
G04 APERTURE END LIST*
D10*
X90000000Y-119500000D02*
G75*
G03*
X89700000Y-119800000I0J-300000D01*
G01*
X103300000Y-127000000D02*
X98797515Y-126998558D01*
X93000000Y-119500000D02*
X90000000Y-119500000D01*
X98200000Y-117900000D02*
X93600000Y-117900000D01*
X93000000Y-119500000D02*
G75*
G03*
X93300000Y-119200000I0J300000D01*
G01*
X89700000Y-126200000D02*
G75*
G03*
X90000000Y-126500000I300000J0D01*
G01*
X103600000Y-121900000D02*
G75*
G03*
X103300000Y-121600000I-300000J0D01*
G01*
X93300000Y-128400000D02*
G75*
G03*
X93600000Y-128700000I300000J0D01*
G01*
X98200000Y-128700000D02*
X93600000Y-128700000D01*
X103300000Y-121600000D02*
X98800000Y-121600000D01*
X103600000Y-126700000D02*
X103600000Y-121900000D01*
X98500000Y-121300000D02*
X98500000Y-118200000D01*
X98500000Y-121300000D02*
G75*
G03*
X98800000Y-121600000I300000J0D01*
G01*
X93300000Y-126800000D02*
G75*
G03*
X93000000Y-126500000I-300000J0D01*
G01*
X93300000Y-118200000D02*
X93300000Y-119200000D01*
X98500000Y-118200000D02*
G75*
G03*
X98200000Y-117900000I-300000J0D01*
G01*
X98500000Y-128400000D02*
X98497515Y-127298558D01*
X90000000Y-126500000D02*
X93000000Y-126500000D01*
X89700000Y-126200000D02*
X89700000Y-119800000D01*
X98797515Y-126998615D02*
G75*
G03*
X98497515Y-127298558I-15J-299985D01*
G01*
X93300000Y-126800000D02*
X93300000Y-128400000D01*
X98200000Y-128700000D02*
G75*
G03*
X98500000Y-128400000I0J300000D01*
G01*
X103300000Y-127000000D02*
G75*
G03*
X103600000Y-126700000I0J300000D01*
G01*
X93600000Y-117900000D02*
G75*
G03*
X93300000Y-118200000I0J-300000D01*
G01*
M02*
