%TF.GenerationSoftware,KiCad,Pcbnew,(6.0.5)*%
%TF.CreationDate,2022-07-04T14:56:29-04:00*%
%TF.ProjectId,magdilocks,6d616764-696c-46f6-936b-732e6b696361,rev?*%
%TF.SameCoordinates,Original*%
%TF.FileFunction,Copper,L1,Top*%
%TF.FilePolarity,Positive*%
%FSLAX46Y46*%
G04 Gerber Fmt 4.6, Leading zero omitted, Abs format (unit mm)*
G04 Created by KiCad (PCBNEW (6.0.5)) date 2022-07-04 14:56:29*
%MOMM*%
%LPD*%
G01*
G04 APERTURE LIST*
G04 Aperture macros list*
%AMRoundRect*
0 Rectangle with rounded corners*
0 $1 Rounding radius*
0 $2 $3 $4 $5 $6 $7 $8 $9 X,Y pos of 4 corners*
0 Add a 4 corners polygon primitive as box body*
4,1,4,$2,$3,$4,$5,$6,$7,$8,$9,$2,$3,0*
0 Add four circle primitives for the rounded corners*
1,1,$1+$1,$2,$3*
1,1,$1+$1,$4,$5*
1,1,$1+$1,$6,$7*
1,1,$1+$1,$8,$9*
0 Add four rect primitives between the rounded corners*
20,1,$1+$1,$2,$3,$4,$5,0*
20,1,$1+$1,$4,$5,$6,$7,0*
20,1,$1+$1,$6,$7,$8,$9,0*
20,1,$1+$1,$8,$9,$2,$3,0*%
G04 Aperture macros list end*
%TA.AperFunction,ComponentPad*%
%ADD10O,1.150000X1.700000*%
%TD*%
%TA.AperFunction,ComponentPad*%
%ADD11O,1.700000X1.150000*%
%TD*%
%TA.AperFunction,SMDPad,CuDef*%
%ADD12RoundRect,0.225000X0.425000X-0.225000X0.425000X0.225000X-0.425000X0.225000X-0.425000X-0.225000X0*%
%TD*%
%TA.AperFunction,SMDPad,CuDef*%
%ADD13RoundRect,0.175000X-0.475000X0.175000X-0.475000X-0.175000X0.475000X-0.175000X0.475000X0.175000X0*%
%TD*%
%TA.AperFunction,SMDPad,CuDef*%
%ADD14RoundRect,0.175000X0.475000X-0.175000X0.475000X0.175000X-0.475000X0.175000X-0.475000X-0.175000X0*%
%TD*%
%TA.AperFunction,SMDPad,CuDef*%
%ADD15RoundRect,0.175000X0.175000X-0.325000X0.175000X0.325000X-0.175000X0.325000X-0.175000X-0.325000X0*%
%TD*%
%TA.AperFunction,SMDPad,CuDef*%
%ADD16RoundRect,0.225000X-0.425000X0.225000X-0.425000X-0.225000X0.425000X-0.225000X0.425000X0.225000X0*%
%TD*%
%TA.AperFunction,SMDPad,CuDef*%
%ADD17RoundRect,0.150000X-0.150000X0.500000X-0.150000X-0.500000X0.150000X-0.500000X0.150000X0.500000X0*%
%TD*%
%TA.AperFunction,ViaPad*%
%ADD18C,0.800000*%
%TD*%
%TA.AperFunction,Conductor*%
%ADD19C,0.250000*%
%TD*%
%TA.AperFunction,Conductor*%
%ADD20C,0.500000*%
%TD*%
G04 APERTURE END LIST*
D10*
%TO.P,J2,3*%
%TO.N,GND*%
X94960000Y-132000000D03*
%TO.P,J2,2*%
%TO.N,/OUT_RAW*%
X96230000Y-132000000D03*
%TO.P,J2,1*%
%TO.N,/OUT_FLT*%
X97500000Y-132000000D03*
%TD*%
%TO.P,J3,1*%
%TO.N,+3V3*%
X97500000Y-119000000D03*
%TO.P,J3,2*%
%TO.N,/SDA*%
X96230000Y-119000000D03*
%TO.P,J3,3*%
%TO.N,/SCL*%
X94960000Y-119000000D03*
%TD*%
D11*
%TO.P,J1,1*%
%TO.N,+3V3*%
X99605000Y-122460000D03*
%TO.P,J1,2*%
%TO.N,/OUT_RAW*%
X99605000Y-123730000D03*
%TO.P,J1,3*%
%TO.N,GND*%
X99605000Y-125000000D03*
%TD*%
D12*
%TO.P,C1,1*%
%TO.N,/OUT_FLT*%
X97000000Y-129950000D03*
%TO.P,C1,2*%
%TO.N,GND*%
X97000000Y-128050000D03*
%TD*%
D13*
%TO.P,R4,1*%
%TO.N,/OUT_RAW*%
X94750000Y-127300000D03*
%TO.P,R4,2*%
%TO.N,/OUT_FLT*%
X94750000Y-129200000D03*
%TD*%
D14*
%TO.P,R2,1*%
%TO.N,+3V3*%
X94750000Y-122700000D03*
%TO.P,R2,2*%
%TO.N,/SCL*%
X94750000Y-120800000D03*
%TD*%
D15*
%TO.P,U2,1,SDA*%
%TO.N,/SDA*%
X101050000Y-125050000D03*
%TO.P,U2,2,GND*%
%TO.N,GND*%
X102000000Y-125050000D03*
%TO.P,U2,3,SCL*%
%TO.N,/SCL*%
X102950000Y-125050000D03*
%TO.P,U2,4,VDD*%
%TO.N,+3V3*%
X102950000Y-122450000D03*
%TO.P,U2,5,ALERT*%
%TO.N,/OUT_RAW*%
X101050000Y-122450000D03*
%TD*%
D16*
%TO.P,C2,2*%
%TO.N,GND*%
X97000000Y-126200000D03*
%TO.P,C2,1*%
%TO.N,+3V3*%
X97000000Y-124300000D03*
%TD*%
D14*
%TO.P,R3,1*%
%TO.N,+3V3*%
X96750000Y-122700000D03*
%TO.P,R3,2*%
%TO.N,/SDA*%
X96750000Y-120800000D03*
%TD*%
D13*
%TO.P,R1,2*%
%TO.N,/OUT_RAW*%
X94750000Y-125950000D03*
%TO.P,R1,1*%
%TO.N,+3V3*%
X94750000Y-124050000D03*
%TD*%
D17*
%TO.P,U1,1,VCC*%
%TO.N,+3V3*%
X102950000Y-122700000D03*
%TO.P,U1,2,OUT*%
%TO.N,/OUT_RAW*%
X101050000Y-122700000D03*
%TO.P,U1,3,GND*%
%TO.N,GND*%
X102000000Y-124800000D03*
%TD*%
D18*
%TO.N,GND*%
X93500000Y-130750000D03*
X97000000Y-127250000D03*
X93500000Y-125000000D03*
X93500000Y-121500000D03*
X93500000Y-118500000D03*
%TO.N,+3V3*%
X102000000Y-122399500D03*
%TO.N,/SCL*%
X102500000Y-126250000D03*
%TO.N,/SDA*%
X101250000Y-125950980D03*
%TD*%
D19*
%TO.N,/OUT_RAW*%
X93750000Y-129850000D02*
X94400000Y-130500000D01*
X96230000Y-131030000D02*
X96230000Y-132000000D01*
X93750000Y-127525480D02*
X93750000Y-129850000D01*
X93975480Y-127300000D02*
X93750000Y-127525480D01*
X94750000Y-127300000D02*
X93975480Y-127300000D01*
X94400000Y-130500000D02*
X95700000Y-130500000D01*
X95700000Y-130500000D02*
X96230000Y-131030000D01*
%TO.N,/OUT_FLT*%
X97500000Y-130450000D02*
X97000000Y-129950000D01*
X97500000Y-132000000D02*
X97500000Y-130450000D01*
X96250000Y-129200000D02*
X97000000Y-129950000D01*
X94750000Y-129200000D02*
X96250000Y-129200000D01*
%TO.N,/SDA*%
X101250000Y-125950980D02*
X101050000Y-125750980D01*
X101050000Y-125750980D02*
X101050000Y-125050000D01*
%TO.N,/OUT_RAW*%
X99020000Y-123730000D02*
X97500000Y-125250000D01*
X94975000Y-125250000D02*
X94750000Y-125475000D01*
X94750000Y-125475000D02*
X94750000Y-125950000D01*
X100000000Y-123730000D02*
X99020000Y-123730000D01*
X97500000Y-125250000D02*
X94975000Y-125250000D01*
X94750000Y-125950000D02*
X94750000Y-127300000D01*
%TO.N,/SDA*%
X96750000Y-120250000D02*
X96230000Y-119730000D01*
X96230000Y-119730000D02*
X96230000Y-119000000D01*
X96750000Y-120800000D02*
X96750000Y-120250000D01*
%TO.N,/SCL*%
X94750000Y-119210000D02*
X94960000Y-119000000D01*
X94750000Y-120800000D02*
X94750000Y-119210000D01*
%TO.N,+3V3*%
X98175480Y-119675480D02*
X98175480Y-121274520D01*
X97500000Y-119000000D02*
X98175480Y-119675480D01*
X98175480Y-121274520D02*
X96750000Y-122700000D01*
X96750000Y-123500000D02*
X96750000Y-122700000D01*
X97000000Y-123750000D02*
X96750000Y-123500000D01*
X97000000Y-124300000D02*
X97000000Y-123750000D01*
D20*
X97000000Y-124300000D02*
X98840000Y-122460000D01*
X98840000Y-122460000D02*
X100000000Y-122460000D01*
D19*
X94750000Y-124050000D02*
X94750000Y-122700000D01*
X96750000Y-122700000D02*
X94750000Y-122700000D01*
%TO.N,GND*%
X100668093Y-124225480D02*
X100000000Y-124893573D01*
X102000000Y-124793573D02*
X101431907Y-124225480D01*
X101431907Y-124225480D02*
X100668093Y-124225480D01*
X102000000Y-125050000D02*
X102000000Y-124793573D01*
X100000000Y-124893573D02*
X100000000Y-125000000D01*
X102000000Y-124800000D02*
X102000000Y-125050000D01*
%TO.N,+3V3*%
X102050500Y-122450000D02*
X102000000Y-122399500D01*
X102950000Y-122450000D02*
X102050500Y-122450000D01*
X100000000Y-122400000D02*
X100000000Y-122460000D01*
%TO.N,/SCL*%
X102950000Y-125800000D02*
X102950000Y-125050000D01*
X102500000Y-126250000D02*
X102950000Y-125800000D01*
%TO.N,/OUT_RAW*%
X101050000Y-123550000D02*
X100870000Y-123730000D01*
X100870000Y-123730000D02*
X100000000Y-123730000D01*
X101050000Y-122700000D02*
X101050000Y-123550000D01*
%TD*%
%TA.AperFunction,Conductor*%
%TO.N,GND*%
G36*
X94279426Y-118120185D02*
G01*
X94325181Y-118172989D01*
X94335125Y-118242147D01*
X94316617Y-118291672D01*
X94260980Y-118378004D01*
X94201475Y-118541493D01*
X94200607Y-118548364D01*
X94200606Y-118548368D01*
X94184988Y-118671997D01*
X94184500Y-118675863D01*
X94184500Y-119318746D01*
X94198987Y-119447898D01*
X94256204Y-119612203D01*
X94259875Y-119618078D01*
X94259877Y-119618082D01*
X94324694Y-119721810D01*
X94348400Y-119759748D01*
X94353284Y-119764666D01*
X94353287Y-119764670D01*
X94388487Y-119800117D01*
X94421758Y-119861556D01*
X94424500Y-119887491D01*
X94424500Y-120125500D01*
X94404815Y-120192539D01*
X94352011Y-120238294D01*
X94300500Y-120249500D01*
X94239410Y-120249500D01*
X94204988Y-120254567D01*
X94175140Y-120258961D01*
X94175139Y-120258961D01*
X94165604Y-120260365D01*
X94156951Y-120264613D01*
X94156952Y-120264613D01*
X94062591Y-120310941D01*
X94062589Y-120310943D01*
X94053390Y-120315459D01*
X93965073Y-120403931D01*
X93910174Y-120516241D01*
X93899500Y-120589410D01*
X93899500Y-121010590D01*
X93910365Y-121084396D01*
X93914613Y-121093048D01*
X93960941Y-121187409D01*
X93960943Y-121187411D01*
X93965459Y-121196610D01*
X93972714Y-121203852D01*
X94046388Y-121277397D01*
X94053931Y-121284927D01*
X94166241Y-121339826D01*
X94207779Y-121345886D01*
X94234959Y-121349851D01*
X94234963Y-121349851D01*
X94239410Y-121350500D01*
X95260590Y-121350500D01*
X95295012Y-121345433D01*
X95324860Y-121341039D01*
X95324861Y-121341039D01*
X95334396Y-121339635D01*
X95393436Y-121310648D01*
X95437409Y-121289059D01*
X95437411Y-121289057D01*
X95446610Y-121284541D01*
X95508036Y-121223007D01*
X95527686Y-121203323D01*
X95527687Y-121203322D01*
X95534927Y-121196069D01*
X95589826Y-121083759D01*
X95600500Y-121010590D01*
X95600500Y-120589410D01*
X95589635Y-120515604D01*
X95539327Y-120413137D01*
X95539059Y-120412591D01*
X95539057Y-120412589D01*
X95534541Y-120403390D01*
X95490416Y-120359342D01*
X95453323Y-120322314D01*
X95453322Y-120322313D01*
X95446069Y-120315073D01*
X95333759Y-120260174D01*
X95292221Y-120254114D01*
X95265041Y-120250149D01*
X95265037Y-120250149D01*
X95260590Y-120249500D01*
X95252981Y-120249500D01*
X95251959Y-120249200D01*
X95251615Y-120249175D01*
X95251620Y-120249100D01*
X95185942Y-120229815D01*
X95140187Y-120177011D01*
X95130243Y-120107853D01*
X95159268Y-120044297D01*
X95213020Y-120008116D01*
X95285714Y-119983369D01*
X95285717Y-119983368D01*
X95292281Y-119981133D01*
X95440467Y-119889969D01*
X95508259Y-119823582D01*
X95569927Y-119790742D01*
X95639563Y-119796456D01*
X95683002Y-119824803D01*
X95736113Y-119878286D01*
X95740994Y-119883201D01*
X95887892Y-119976425D01*
X96046415Y-120032873D01*
X96046417Y-120032874D01*
X96051793Y-120034788D01*
X96051473Y-120035688D01*
X96105348Y-120065674D01*
X96133185Y-120093511D01*
X96166670Y-120154834D01*
X96161686Y-120224526D01*
X96119814Y-120280459D01*
X96100152Y-120292500D01*
X96062593Y-120310940D01*
X96062592Y-120310941D01*
X96053390Y-120315459D01*
X95965073Y-120403931D01*
X95910174Y-120516241D01*
X95899500Y-120589410D01*
X95899500Y-121010590D01*
X95910365Y-121084396D01*
X95914613Y-121093048D01*
X95960941Y-121187409D01*
X95960943Y-121187411D01*
X95965459Y-121196610D01*
X95972714Y-121203852D01*
X96046388Y-121277397D01*
X96053931Y-121284927D01*
X96166241Y-121339826D01*
X96207779Y-121345886D01*
X96234959Y-121349851D01*
X96234963Y-121349851D01*
X96239410Y-121350500D01*
X97260590Y-121350500D01*
X97278058Y-121347929D01*
X97333861Y-121339714D01*
X97403052Y-121349425D01*
X97456010Y-121395003D01*
X97475919Y-121461976D01*
X97456460Y-121529081D01*
X97439601Y-121550073D01*
X96876493Y-122113181D01*
X96815170Y-122146666D01*
X96788812Y-122149500D01*
X96239410Y-122149500D01*
X96204988Y-122154567D01*
X96175140Y-122158961D01*
X96175139Y-122158961D01*
X96165604Y-122160365D01*
X96156951Y-122164613D01*
X96156952Y-122164613D01*
X96062591Y-122210941D01*
X96062589Y-122210943D01*
X96053390Y-122215459D01*
X95965073Y-122303931D01*
X95960573Y-122313137D01*
X95954620Y-122321483D01*
X95951508Y-122319263D01*
X95917408Y-122356563D01*
X95853169Y-122374500D01*
X95646713Y-122374500D01*
X95579674Y-122354815D01*
X95547733Y-122318986D01*
X95545025Y-122320925D01*
X95539059Y-122312592D01*
X95534541Y-122303390D01*
X95490416Y-122259342D01*
X95453323Y-122222314D01*
X95453322Y-122222313D01*
X95446069Y-122215073D01*
X95333759Y-122160174D01*
X95292221Y-122154114D01*
X95265041Y-122150149D01*
X95265037Y-122150149D01*
X95260590Y-122149500D01*
X94239410Y-122149500D01*
X94204988Y-122154567D01*
X94175140Y-122158961D01*
X94175139Y-122158961D01*
X94165604Y-122160365D01*
X94156951Y-122164613D01*
X94156952Y-122164613D01*
X94062591Y-122210941D01*
X94062589Y-122210943D01*
X94053390Y-122215459D01*
X93965073Y-122303931D01*
X93910174Y-122416241D01*
X93899500Y-122489410D01*
X93899500Y-122910590D01*
X93910365Y-122984396D01*
X93914613Y-122993048D01*
X93960941Y-123087409D01*
X93960943Y-123087411D01*
X93965459Y-123096610D01*
X93972714Y-123103852D01*
X94046277Y-123177286D01*
X94053931Y-123184927D01*
X94166241Y-123239826D01*
X94207779Y-123245886D01*
X94234959Y-123249851D01*
X94234963Y-123249851D01*
X94239410Y-123250500D01*
X94300500Y-123250500D01*
X94367539Y-123270185D01*
X94413294Y-123322989D01*
X94424500Y-123374500D01*
X94424500Y-123375500D01*
X94404815Y-123442539D01*
X94352011Y-123488294D01*
X94300500Y-123499500D01*
X94239410Y-123499500D01*
X94206627Y-123504326D01*
X94175140Y-123508961D01*
X94175139Y-123508961D01*
X94165604Y-123510365D01*
X94156951Y-123514613D01*
X94156952Y-123514613D01*
X94062591Y-123560941D01*
X94062589Y-123560943D01*
X94053390Y-123565459D01*
X94031301Y-123587587D01*
X93973305Y-123645685D01*
X93965073Y-123653931D01*
X93910174Y-123766241D01*
X93899500Y-123839410D01*
X93899500Y-124260590D01*
X93910365Y-124334396D01*
X93914613Y-124343048D01*
X93960941Y-124437409D01*
X93960943Y-124437411D01*
X93965459Y-124446610D01*
X93972714Y-124453852D01*
X94046277Y-124527286D01*
X94053931Y-124534927D01*
X94166241Y-124589826D01*
X94207779Y-124595886D01*
X94234959Y-124599851D01*
X94234963Y-124599851D01*
X94239410Y-124600500D01*
X95260590Y-124600500D01*
X95295012Y-124595433D01*
X95324860Y-124591039D01*
X95324861Y-124591039D01*
X95334396Y-124589635D01*
X95357925Y-124578083D01*
X95437409Y-124539059D01*
X95437411Y-124539057D01*
X95446610Y-124534541D01*
X95534927Y-124446069D01*
X95589826Y-124333759D01*
X95596933Y-124285044D01*
X95599851Y-124265041D01*
X95599851Y-124265037D01*
X95600500Y-124260590D01*
X95600500Y-123839410D01*
X95589635Y-123765604D01*
X95568246Y-123722040D01*
X95539059Y-123662591D01*
X95539057Y-123662589D01*
X95534541Y-123653390D01*
X95459827Y-123578807D01*
X95453323Y-123572314D01*
X95453322Y-123572313D01*
X95446069Y-123565073D01*
X95333759Y-123510174D01*
X95292221Y-123504114D01*
X95265041Y-123500149D01*
X95265037Y-123500149D01*
X95260590Y-123499500D01*
X95199500Y-123499500D01*
X95132461Y-123479815D01*
X95086706Y-123427011D01*
X95075500Y-123375500D01*
X95075500Y-123374500D01*
X95095185Y-123307461D01*
X95147989Y-123261706D01*
X95199500Y-123250500D01*
X95260590Y-123250500D01*
X95295012Y-123245433D01*
X95324860Y-123241039D01*
X95324861Y-123241039D01*
X95334396Y-123239635D01*
X95357925Y-123228083D01*
X95437409Y-123189059D01*
X95437411Y-123189057D01*
X95446610Y-123184541D01*
X95534927Y-123096069D01*
X95539427Y-123086863D01*
X95545380Y-123078517D01*
X95548492Y-123080737D01*
X95582592Y-123043437D01*
X95646831Y-123025500D01*
X95853287Y-123025500D01*
X95920326Y-123045185D01*
X95952267Y-123081014D01*
X95954975Y-123079075D01*
X95960941Y-123087408D01*
X95965459Y-123096610D01*
X95972714Y-123103852D01*
X96046277Y-123177286D01*
X96053931Y-123184927D01*
X96166241Y-123239826D01*
X96207779Y-123245886D01*
X96234959Y-123249851D01*
X96234963Y-123249851D01*
X96239410Y-123250500D01*
X96300500Y-123250500D01*
X96367539Y-123270185D01*
X96413294Y-123322989D01*
X96424500Y-123374500D01*
X96424500Y-123480373D01*
X96424028Y-123491181D01*
X96420736Y-123528807D01*
X96429249Y-123560573D01*
X96429462Y-123561369D01*
X96427801Y-123631219D01*
X96388640Y-123689082D01*
X96365982Y-123703950D01*
X96330477Y-123722040D01*
X96330474Y-123722042D01*
X96321780Y-123726472D01*
X96226472Y-123821780D01*
X96165281Y-123941874D01*
X96163754Y-123951516D01*
X96150798Y-124033318D01*
X96149500Y-124041512D01*
X96149500Y-124558488D01*
X96150263Y-124563303D01*
X96150263Y-124563308D01*
X96154683Y-124591215D01*
X96165281Y-124658126D01*
X96169712Y-124666823D01*
X96169713Y-124666825D01*
X96209140Y-124744206D01*
X96222036Y-124812875D01*
X96195759Y-124877615D01*
X96138653Y-124917872D01*
X96098655Y-124924500D01*
X94994627Y-124924500D01*
X94983819Y-124924028D01*
X94946193Y-124920736D01*
X94909690Y-124930517D01*
X94899143Y-124932855D01*
X94885965Y-124935179D01*
X94861955Y-124939412D01*
X94852558Y-124944838D01*
X94849100Y-124946096D01*
X94845791Y-124947639D01*
X94835316Y-124950446D01*
X94826431Y-124956667D01*
X94826432Y-124956667D01*
X94804383Y-124972106D01*
X94795257Y-124977920D01*
X94771939Y-124991382D01*
X94771937Y-124991384D01*
X94762545Y-124996806D01*
X94755572Y-125005116D01*
X94738263Y-125025744D01*
X94730955Y-125033719D01*
X94533724Y-125230950D01*
X94525749Y-125238259D01*
X94496806Y-125262545D01*
X94491384Y-125271937D01*
X94491382Y-125271939D01*
X94477920Y-125295257D01*
X94472106Y-125304383D01*
X94450446Y-125335316D01*
X94449833Y-125334887D01*
X94409804Y-125380347D01*
X94343598Y-125399500D01*
X94239410Y-125399500D01*
X94204988Y-125404567D01*
X94175140Y-125408961D01*
X94175139Y-125408961D01*
X94165604Y-125410365D01*
X94156951Y-125414613D01*
X94156952Y-125414613D01*
X94062591Y-125460941D01*
X94062589Y-125460943D01*
X94053390Y-125465459D01*
X93965073Y-125553931D01*
X93910174Y-125666241D01*
X93907448Y-125684927D01*
X93900921Y-125729671D01*
X93899500Y-125739410D01*
X93899500Y-126160590D01*
X93910365Y-126234396D01*
X93914613Y-126243048D01*
X93960941Y-126337409D01*
X93960943Y-126337411D01*
X93965459Y-126346610D01*
X93972714Y-126353852D01*
X94046277Y-126427286D01*
X94053931Y-126434927D01*
X94166241Y-126489826D01*
X94207779Y-126495886D01*
X94234959Y-126499851D01*
X94234963Y-126499851D01*
X94239410Y-126500500D01*
X94300500Y-126500500D01*
X94367539Y-126520185D01*
X94413294Y-126572989D01*
X94424500Y-126624500D01*
X94424500Y-126625500D01*
X94404815Y-126692539D01*
X94352011Y-126738294D01*
X94300500Y-126749500D01*
X94239410Y-126749500D01*
X94204988Y-126754567D01*
X94175140Y-126758961D01*
X94175139Y-126758961D01*
X94165604Y-126760365D01*
X94156951Y-126764613D01*
X94156952Y-126764613D01*
X94062591Y-126810941D01*
X94062589Y-126810943D01*
X94053390Y-126815459D01*
X94009453Y-126859474D01*
X93992699Y-126876257D01*
X93965073Y-126903931D01*
X93957936Y-126918533D01*
X93956746Y-126920967D01*
X93909621Y-126972552D01*
X93882875Y-126982610D01*
X93883314Y-126983818D01*
X93873121Y-126987528D01*
X93862435Y-126989412D01*
X93853038Y-126994837D01*
X93849580Y-126996096D01*
X93846271Y-126997639D01*
X93835796Y-127000446D01*
X93816395Y-127014031D01*
X93804863Y-127022106D01*
X93795737Y-127027920D01*
X93772419Y-127041382D01*
X93772417Y-127041384D01*
X93763025Y-127046806D01*
X93756052Y-127055116D01*
X93738743Y-127075744D01*
X93731435Y-127083719D01*
X93533724Y-127281430D01*
X93525749Y-127288739D01*
X93496806Y-127313025D01*
X93491384Y-127322417D01*
X93491382Y-127322419D01*
X93477920Y-127345737D01*
X93472106Y-127354863D01*
X93450446Y-127385796D01*
X93447639Y-127396271D01*
X93446096Y-127399580D01*
X93444838Y-127403038D01*
X93439412Y-127412435D01*
X93437528Y-127423121D01*
X93432855Y-127449623D01*
X93430517Y-127460170D01*
X93420736Y-127496673D01*
X93423815Y-127531869D01*
X93424028Y-127534299D01*
X93424500Y-127545107D01*
X93424500Y-129830373D01*
X93424028Y-129841181D01*
X93420736Y-129878807D01*
X93430517Y-129915310D01*
X93432855Y-129925857D01*
X93439412Y-129963045D01*
X93444838Y-129972442D01*
X93446096Y-129975900D01*
X93447639Y-129979209D01*
X93450446Y-129989684D01*
X93456667Y-129998568D01*
X93472106Y-130020617D01*
X93477920Y-130029743D01*
X93496806Y-130062455D01*
X93505116Y-130069428D01*
X93525744Y-130086737D01*
X93533719Y-130094045D01*
X94155950Y-130716276D01*
X94163259Y-130724251D01*
X94187545Y-130753194D01*
X94196938Y-130758617D01*
X94200282Y-130761423D01*
X94238985Y-130819594D01*
X94240094Y-130889455D01*
X94210150Y-130942161D01*
X94110299Y-131046466D01*
X94103022Y-131055681D01*
X93997327Y-131219374D01*
X93991914Y-131229817D01*
X93919080Y-131410540D01*
X93915744Y-131421801D01*
X93878121Y-131614459D01*
X93877064Y-131623159D01*
X93877000Y-131625791D01*
X93877000Y-131728170D01*
X93881404Y-131743169D01*
X93882774Y-131744356D01*
X93890332Y-131746000D01*
X95090000Y-131746000D01*
X95157039Y-131765685D01*
X95202794Y-131818489D01*
X95214000Y-131870000D01*
X95214000Y-132130000D01*
X95194315Y-132197039D01*
X95141511Y-132242794D01*
X95090000Y-132254000D01*
X93894830Y-132254000D01*
X93879831Y-132258404D01*
X93878644Y-132259774D01*
X93877000Y-132267332D01*
X93877000Y-132323669D01*
X93877282Y-132329582D01*
X93891141Y-132474842D01*
X93893363Y-132486385D01*
X93948215Y-132673358D01*
X93952579Y-132684269D01*
X93970324Y-132718723D01*
X93983520Y-132787336D01*
X93957526Y-132852190D01*
X93900596Y-132892696D01*
X93860086Y-132899500D01*
X93236911Y-132899500D01*
X93209082Y-132896337D01*
X93200428Y-132894344D01*
X93201400Y-132890125D01*
X93159361Y-132877699D01*
X93113701Y-132824813D01*
X93108282Y-132799696D01*
X93105656Y-132800291D01*
X93103567Y-132791074D01*
X93100500Y-132763665D01*
X93100500Y-118237140D01*
X93103703Y-118209139D01*
X93105655Y-118200718D01*
X93108211Y-118201311D01*
X93130722Y-118148080D01*
X93188407Y-118108657D01*
X93199913Y-118106855D01*
X93199642Y-118105656D01*
X93208920Y-118103556D01*
X93236280Y-118100500D01*
X94212387Y-118100500D01*
X94279426Y-118120185D01*
G37*
%TD.AperFunction*%
%TA.AperFunction,Conductor*%
G36*
X99802039Y-124765685D02*
G01*
X99847794Y-124818489D01*
X99859000Y-124870000D01*
X99859000Y-126065170D01*
X99863404Y-126080169D01*
X99864774Y-126081356D01*
X99872332Y-126083000D01*
X99928669Y-126083000D01*
X99934582Y-126082718D01*
X100079842Y-126068859D01*
X100091385Y-126066637D01*
X100278358Y-126011785D01*
X100289269Y-126007421D01*
X100467741Y-125915501D01*
X100468380Y-125916742D01*
X100528785Y-125899032D01*
X100595817Y-125918744D01*
X100641550Y-125971567D01*
X100651673Y-126006847D01*
X100664956Y-126107742D01*
X100668065Y-126115249D01*
X100668066Y-126115251D01*
X100686846Y-126160590D01*
X100725464Y-126253821D01*
X100821718Y-126379262D01*
X100947159Y-126475516D01*
X100954667Y-126478626D01*
X101085729Y-126532914D01*
X101085731Y-126532915D01*
X101093238Y-126536024D01*
X101101297Y-126537085D01*
X101218850Y-126552561D01*
X101248296Y-126565587D01*
X101262400Y-126556523D01*
X101281150Y-126552561D01*
X101398703Y-126537085D01*
X101406762Y-126536024D01*
X101414269Y-126532915D01*
X101414271Y-126532914D01*
X101545333Y-126478626D01*
X101552841Y-126475516D01*
X101678282Y-126379262D01*
X101695981Y-126356196D01*
X101752409Y-126314993D01*
X101822155Y-126310838D01*
X101883075Y-126345050D01*
X101913975Y-126399314D01*
X101914956Y-126406762D01*
X101975464Y-126552841D01*
X101980411Y-126559288D01*
X102011661Y-126600014D01*
X102036855Y-126665183D01*
X102022817Y-126733628D01*
X101974003Y-126783617D01*
X101913285Y-126799500D01*
X101297335Y-126799500D01*
X101248847Y-126785262D01*
X101221771Y-126798019D01*
X101202665Y-126799500D01*
X98837086Y-126799500D01*
X98809128Y-126796307D01*
X98807482Y-126795926D01*
X98807479Y-126795926D01*
X98800649Y-126794345D01*
X98799931Y-126794344D01*
X98789700Y-126796681D01*
X98789499Y-126796727D01*
X98775804Y-126799057D01*
X98694802Y-126808207D01*
X98694798Y-126808208D01*
X98687884Y-126808989D01*
X98581458Y-126846252D01*
X98575566Y-126849955D01*
X98502066Y-126896148D01*
X98485987Y-126906253D01*
X98406253Y-126985987D01*
X98402552Y-126991875D01*
X98402551Y-126991877D01*
X98388628Y-127014031D01*
X98346252Y-127081458D01*
X98308989Y-127187884D01*
X98306056Y-127213849D01*
X98299178Y-127274732D01*
X98296751Y-127288847D01*
X98294345Y-127299213D01*
X98294344Y-127299931D01*
X98295895Y-127306743D01*
X98295896Y-127306748D01*
X98296404Y-127308977D01*
X98299500Y-127336513D01*
X98299500Y-127409131D01*
X98279815Y-127476170D01*
X98227011Y-127521925D01*
X98157853Y-127531869D01*
X98094297Y-127502844D01*
X98070056Y-127474381D01*
X98007151Y-127372728D01*
X97998260Y-127361510D01*
X97887488Y-127250931D01*
X97876259Y-127242064D01*
X97857502Y-127230502D01*
X97810762Y-127178568D01*
X97799519Y-127109609D01*
X97827343Y-127045519D01*
X97857316Y-127019501D01*
X97877270Y-127007153D01*
X97888490Y-126998260D01*
X97999069Y-126887488D01*
X98007938Y-126876257D01*
X98090063Y-126743026D01*
X98096115Y-126730048D01*
X98145525Y-126581082D01*
X98148347Y-126567916D01*
X98157678Y-126476851D01*
X98157944Y-126471639D01*
X98153596Y-126456831D01*
X98152226Y-126455644D01*
X98144668Y-126454000D01*
X97271830Y-126454000D01*
X97256831Y-126458404D01*
X97255644Y-126459774D01*
X97254000Y-126467332D01*
X97254000Y-128990170D01*
X97258404Y-129005169D01*
X97259774Y-129006356D01*
X97267332Y-129008000D01*
X97470507Y-129008000D01*
X97476882Y-129007670D01*
X97569170Y-128998094D01*
X97582348Y-128995248D01*
X97731221Y-128945581D01*
X97744181Y-128939510D01*
X97877276Y-128857149D01*
X97888490Y-128848260D01*
X97999069Y-128737488D01*
X98007938Y-128726257D01*
X98069943Y-128625666D01*
X98121877Y-128578926D01*
X98190836Y-128567684D01*
X98254926Y-128595509D01*
X98293799Y-128653566D01*
X98299500Y-128690732D01*
X98299500Y-131128621D01*
X98279815Y-131195660D01*
X98227011Y-131241415D01*
X98157853Y-131251359D01*
X98094297Y-131222334D01*
X98087513Y-131215996D01*
X97993887Y-131121714D01*
X97993886Y-131121713D01*
X97989006Y-131116799D01*
X97983159Y-131113088D01*
X97983156Y-131113086D01*
X97929585Y-131079090D01*
X97883057Y-131049562D01*
X97837002Y-130997021D01*
X97825500Y-130944866D01*
X97825500Y-130469627D01*
X97825972Y-130458819D01*
X97828318Y-130432001D01*
X97829264Y-130421193D01*
X97823609Y-130400090D01*
X97825270Y-130330241D01*
X97828400Y-130322634D01*
X97830288Y-130316821D01*
X97834719Y-130308126D01*
X97845290Y-130241382D01*
X97849737Y-130213308D01*
X97849737Y-130213303D01*
X97850500Y-130208488D01*
X97850500Y-129691512D01*
X97846919Y-129668899D01*
X97836246Y-129601516D01*
X97834719Y-129591874D01*
X97773528Y-129471780D01*
X97678220Y-129376472D01*
X97558126Y-129315281D01*
X97527625Y-129310450D01*
X97463308Y-129300263D01*
X97463303Y-129300263D01*
X97458488Y-129299500D01*
X96861188Y-129299500D01*
X96794149Y-129279815D01*
X96773507Y-129263181D01*
X96713735Y-129203409D01*
X96680250Y-129142086D01*
X96685234Y-129072394D01*
X96727106Y-129016461D01*
X96735787Y-129012116D01*
X96744356Y-129002226D01*
X96746000Y-128994668D01*
X96746000Y-128321830D01*
X96741596Y-128306831D01*
X96740226Y-128305644D01*
X96732668Y-128304000D01*
X95859830Y-128304000D01*
X95844831Y-128308404D01*
X95843644Y-128309774D01*
X95842000Y-128317332D01*
X95842000Y-128320507D01*
X95842330Y-128326882D01*
X95851906Y-128419170D01*
X95854752Y-128432348D01*
X95904419Y-128581221D01*
X95910493Y-128594188D01*
X95966844Y-128685249D01*
X95985383Y-128752614D01*
X95964558Y-128819308D01*
X95910982Y-128864156D01*
X95861401Y-128874500D01*
X95646713Y-128874500D01*
X95579674Y-128854815D01*
X95547733Y-128818986D01*
X95545025Y-128820925D01*
X95539059Y-128812592D01*
X95534541Y-128803390D01*
X95483676Y-128752614D01*
X95453323Y-128722314D01*
X95453322Y-128722313D01*
X95446069Y-128715073D01*
X95333759Y-128660174D01*
X95288462Y-128653566D01*
X95265041Y-128650149D01*
X95265037Y-128650149D01*
X95260590Y-128649500D01*
X94239410Y-128649500D01*
X94234935Y-128650159D01*
X94234932Y-128650159D01*
X94230485Y-128650814D01*
X94217559Y-128652717D01*
X94148369Y-128643007D01*
X94095411Y-128597430D01*
X94075500Y-128530039D01*
X94075500Y-127969990D01*
X94095185Y-127902951D01*
X94147989Y-127857196D01*
X94217400Y-127847289D01*
X94239410Y-127850500D01*
X95260590Y-127850500D01*
X95295012Y-127845433D01*
X95324860Y-127841039D01*
X95324861Y-127841039D01*
X95334396Y-127839635D01*
X95357925Y-127828083D01*
X95437409Y-127789059D01*
X95437411Y-127789057D01*
X95446610Y-127784541D01*
X95534927Y-127696069D01*
X95589826Y-127583759D01*
X95597396Y-127531869D01*
X95599851Y-127515041D01*
X95599851Y-127515037D01*
X95600500Y-127510590D01*
X95600500Y-127089410D01*
X95589635Y-127015604D01*
X95539327Y-126913137D01*
X95539059Y-126912591D01*
X95539057Y-126912589D01*
X95534541Y-126903390D01*
X95474999Y-126843952D01*
X95453323Y-126822314D01*
X95453322Y-126822313D01*
X95446069Y-126815073D01*
X95333759Y-126760174D01*
X95292221Y-126754114D01*
X95265041Y-126750149D01*
X95265037Y-126750149D01*
X95260590Y-126749500D01*
X95199500Y-126749500D01*
X95132461Y-126729815D01*
X95086706Y-126677011D01*
X95075500Y-126625500D01*
X95075500Y-126624500D01*
X95095185Y-126557461D01*
X95147989Y-126511706D01*
X95199500Y-126500500D01*
X95260590Y-126500500D01*
X95295012Y-126495433D01*
X95324860Y-126491039D01*
X95324861Y-126491039D01*
X95334396Y-126489635D01*
X95373229Y-126470569D01*
X95373355Y-126470507D01*
X95842000Y-126470507D01*
X95842330Y-126476882D01*
X95851906Y-126569170D01*
X95854752Y-126582348D01*
X95904419Y-126731221D01*
X95910490Y-126744181D01*
X95992851Y-126877276D01*
X96001740Y-126888490D01*
X96112512Y-126999069D01*
X96123741Y-127007936D01*
X96142498Y-127019498D01*
X96189238Y-127071432D01*
X96200481Y-127140391D01*
X96172657Y-127204481D01*
X96142684Y-127230499D01*
X96122730Y-127242847D01*
X96111510Y-127251740D01*
X96000931Y-127362512D01*
X95992062Y-127373743D01*
X95909937Y-127506974D01*
X95903885Y-127519952D01*
X95854475Y-127668918D01*
X95851653Y-127682084D01*
X95842322Y-127773149D01*
X95842056Y-127778361D01*
X95846404Y-127793169D01*
X95847774Y-127794356D01*
X95855332Y-127796000D01*
X96728170Y-127796000D01*
X96743169Y-127791596D01*
X96744356Y-127790226D01*
X96746000Y-127782668D01*
X96746000Y-126471830D01*
X96741596Y-126456831D01*
X96740226Y-126455644D01*
X96732668Y-126454000D01*
X95859830Y-126454000D01*
X95844831Y-126458404D01*
X95843644Y-126459774D01*
X95842000Y-126467332D01*
X95842000Y-126470507D01*
X95373355Y-126470507D01*
X95437409Y-126439059D01*
X95437411Y-126439057D01*
X95446610Y-126434541D01*
X95534927Y-126346069D01*
X95589826Y-126233759D01*
X95600500Y-126160590D01*
X95600500Y-125968136D01*
X95617809Y-125909190D01*
X95602582Y-125879147D01*
X95600500Y-125856521D01*
X95600500Y-125739410D01*
X95597283Y-125717559D01*
X95606993Y-125648369D01*
X95652570Y-125595411D01*
X95719961Y-125575500D01*
X95763441Y-125575500D01*
X95830480Y-125595185D01*
X95876235Y-125647989D01*
X95886179Y-125717147D01*
X95881136Y-125738538D01*
X95854475Y-125818918D01*
X95851653Y-125832084D01*
X95847854Y-125869159D01*
X95830162Y-125912482D01*
X95843477Y-125933200D01*
X95846404Y-125943169D01*
X95847774Y-125944356D01*
X95855332Y-125946000D01*
X98140170Y-125946000D01*
X98155169Y-125941596D01*
X98156356Y-125940226D01*
X98158000Y-125932668D01*
X98158000Y-125929493D01*
X98157670Y-125923118D01*
X98148094Y-125830830D01*
X98145248Y-125817652D01*
X98095581Y-125668779D01*
X98089510Y-125655819D01*
X98007149Y-125522724D01*
X97998256Y-125511505D01*
X97936242Y-125449600D01*
X97902703Y-125388307D01*
X97907626Y-125318611D01*
X97936165Y-125274161D01*
X98058480Y-125151846D01*
X98119803Y-125118361D01*
X98189495Y-125123345D01*
X98245428Y-125165217D01*
X98266710Y-125210475D01*
X98299962Y-125348453D01*
X98303792Y-125359573D01*
X98384438Y-125536947D01*
X98390294Y-125547130D01*
X98503027Y-125706055D01*
X98510711Y-125714957D01*
X98651466Y-125849701D01*
X98660681Y-125856978D01*
X98824374Y-125962673D01*
X98834817Y-125968086D01*
X99015540Y-126040920D01*
X99026801Y-126044256D01*
X99219459Y-126081879D01*
X99228159Y-126082936D01*
X99230791Y-126083000D01*
X99333170Y-126083000D01*
X99348169Y-126078596D01*
X99349356Y-126077226D01*
X99351000Y-126069668D01*
X99351000Y-124870000D01*
X99370685Y-124802961D01*
X99423489Y-124757206D01*
X99475000Y-124746000D01*
X99735000Y-124746000D01*
X99802039Y-124765685D01*
G37*
%TD.AperFunction*%
%TA.AperFunction,Conductor*%
G36*
X101721953Y-122934306D02*
G01*
X101835729Y-122981434D01*
X101835731Y-122981435D01*
X101843238Y-122984544D01*
X102000000Y-123005182D01*
X102008059Y-123004121D01*
X102148703Y-122985605D01*
X102156762Y-122984544D01*
X102164269Y-122981435D01*
X102164271Y-122981434D01*
X102278047Y-122934306D01*
X102347517Y-122926837D01*
X102409996Y-122958112D01*
X102445648Y-123018201D01*
X102449500Y-123048867D01*
X102449500Y-123233218D01*
X102459642Y-123302112D01*
X102511068Y-123406855D01*
X102593650Y-123489293D01*
X102602855Y-123493792D01*
X102602857Y-123493794D01*
X102645013Y-123514400D01*
X102698482Y-123540536D01*
X102708006Y-123541925D01*
X102708008Y-123541926D01*
X102762331Y-123549851D01*
X102762336Y-123549851D01*
X102766782Y-123550500D01*
X103133218Y-123550500D01*
X103202112Y-123540358D01*
X103220853Y-123531157D01*
X103289706Y-123519282D01*
X103354049Y-123546517D01*
X103393453Y-123604216D01*
X103399500Y-123642466D01*
X103399500Y-124244841D01*
X103379815Y-124311880D01*
X103327011Y-124357635D01*
X103257853Y-124367579D01*
X103241280Y-124363850D01*
X103233759Y-124360174D01*
X103224242Y-124358786D01*
X103224240Y-124358785D01*
X103165041Y-124350149D01*
X103165037Y-124350149D01*
X103160590Y-124349500D01*
X102931683Y-124349500D01*
X102864644Y-124329815D01*
X102818889Y-124277011D01*
X102808525Y-124233503D01*
X102807999Y-124233544D01*
X102805562Y-124202571D01*
X102803295Y-124190157D01*
X102760858Y-124044090D01*
X102754712Y-124029886D01*
X102678027Y-123900219D01*
X102668536Y-123887983D01*
X102562017Y-123781464D01*
X102549781Y-123771973D01*
X102420114Y-123695288D01*
X102405910Y-123689142D01*
X102271119Y-123649981D01*
X102257242Y-123650020D01*
X102254000Y-123657173D01*
X102254000Y-124528170D01*
X102258404Y-124543169D01*
X102259774Y-124544356D01*
X102267332Y-124546000D01*
X102277019Y-124546000D01*
X102344058Y-124565685D01*
X102389813Y-124618489D01*
X102398649Y-124680353D01*
X102400474Y-124680485D01*
X102400149Y-124684959D01*
X102399500Y-124689410D01*
X102399500Y-124930000D01*
X102379815Y-124997039D01*
X102327011Y-125042794D01*
X102275500Y-125054000D01*
X102271830Y-125054000D01*
X102256831Y-125058404D01*
X102255644Y-125059774D01*
X102254000Y-125067332D01*
X102254000Y-125622281D01*
X102234315Y-125689320D01*
X102196841Y-125725050D01*
X102197159Y-125725464D01*
X102190715Y-125730409D01*
X102190711Y-125730411D01*
X102098206Y-125801393D01*
X102071718Y-125821718D01*
X102066771Y-125828165D01*
X102054019Y-125844784D01*
X101997591Y-125885987D01*
X101927845Y-125890142D01*
X101866925Y-125855930D01*
X101836025Y-125801666D01*
X101835044Y-125794218D01*
X101774536Y-125648139D01*
X101769589Y-125641692D01*
X101765525Y-125634653D01*
X101767448Y-125633543D01*
X101746430Y-125579175D01*
X101746000Y-125568858D01*
X101746000Y-125071830D01*
X101741596Y-125056831D01*
X101740226Y-125055644D01*
X101732668Y-125054000D01*
X101724500Y-125054000D01*
X101657461Y-125034315D01*
X101611706Y-124981511D01*
X101600500Y-124930000D01*
X101600500Y-124689410D01*
X101599840Y-124684928D01*
X101599509Y-124680404D01*
X101601398Y-124680266D01*
X101610008Y-124618878D01*
X101655580Y-124565916D01*
X101722979Y-124546000D01*
X101728170Y-124546000D01*
X101743169Y-124541596D01*
X101744356Y-124540226D01*
X101746000Y-124532668D01*
X101746000Y-123662837D01*
X101742090Y-123649520D01*
X101734315Y-123648402D01*
X101594090Y-123689142D01*
X101579889Y-123695287D01*
X101563255Y-123705125D01*
X101495532Y-123722309D01*
X101429269Y-123700150D01*
X101385504Y-123645685D01*
X101376715Y-123588314D01*
X101379263Y-123578807D01*
X101378318Y-123568000D01*
X101379230Y-123557571D01*
X101404682Y-123492502D01*
X101415000Y-123480773D01*
X101482054Y-123413602D01*
X101482055Y-123413601D01*
X101489293Y-123406350D01*
X101493792Y-123397145D01*
X101493794Y-123397143D01*
X101536308Y-123310167D01*
X101540536Y-123301518D01*
X101547979Y-123250500D01*
X101549851Y-123237669D01*
X101549851Y-123237664D01*
X101550500Y-123233218D01*
X101550500Y-123048867D01*
X101570185Y-122981828D01*
X101622989Y-122936073D01*
X101692147Y-122926129D01*
X101721953Y-122934306D01*
G37*
%TD.AperFunction*%
%TA.AperFunction,Conductor*%
G36*
X101148583Y-124020795D02*
G01*
X101196393Y-124071745D01*
X101209069Y-124140455D01*
X101204804Y-124162280D01*
X101196702Y-124190165D01*
X101194438Y-124202562D01*
X101192000Y-124233543D01*
X101191169Y-124233478D01*
X101169928Y-124296571D01*
X101115373Y-124340224D01*
X101068316Y-124349500D01*
X100839410Y-124349500D01*
X100830389Y-124350828D01*
X100761198Y-124341117D01*
X100711192Y-124299893D01*
X100706973Y-124293946D01*
X100699290Y-124285044D01*
X100682607Y-124269074D01*
X100647792Y-124208496D01*
X100651254Y-124138712D01*
X100691895Y-124081878D01*
X100756811Y-124056038D01*
X100768354Y-124055500D01*
X100850373Y-124055500D01*
X100861181Y-124055972D01*
X100898807Y-124059264D01*
X100935310Y-124049483D01*
X100945857Y-124047145D01*
X100963183Y-124044090D01*
X100983045Y-124040588D01*
X100992442Y-124035162D01*
X100995900Y-124033904D01*
X100999209Y-124032361D01*
X101009684Y-124029554D01*
X101018567Y-124023334D01*
X101028403Y-124018747D01*
X101029494Y-124021087D01*
X101080816Y-124003781D01*
X101148583Y-124020795D01*
G37*
%TD.AperFunction*%
%TD*%
M02*
