%TF.GenerationSoftware,KiCad,Pcbnew,(6.0.5)*%
%TF.CreationDate,2022-07-05T13:03:16-04:00*%
%TF.ProjectId,magdilocks,6d616764-696c-46f6-936b-732e6b696361,rev?*%
%TF.SameCoordinates,Original*%
%TF.FileFunction,AssemblyDrawing,Top*%
%FSLAX46Y46*%
G04 Gerber Fmt 4.6, Leading zero omitted, Abs format (unit mm)*
G04 Created by KiCad (PCBNEW (6.0.5)) date 2022-07-05 13:03:16*
%MOMM*%
%LPD*%
G01*
G04 APERTURE LIST*
%ADD10C,0.150000*%
%ADD11C,0.100000*%
G04 APERTURE END LIST*
D10*
%TO.C,C2*%
X96157142Y-123190476D02*
X96204761Y-123238095D01*
X96252380Y-123380952D01*
X96252380Y-123476190D01*
X96204761Y-123619047D01*
X96109523Y-123714285D01*
X96014285Y-123761904D01*
X95823809Y-123809523D01*
X95680952Y-123809523D01*
X95490476Y-123761904D01*
X95395238Y-123714285D01*
X95300000Y-123619047D01*
X95252380Y-123476190D01*
X95252380Y-123380952D01*
X95300000Y-123238095D01*
X95347619Y-123190476D01*
X97857142Y-123666666D02*
X97904761Y-123714285D01*
X97952380Y-123857142D01*
X97952380Y-123952380D01*
X97904761Y-124095238D01*
X97809523Y-124190476D01*
X97714285Y-124238095D01*
X97523809Y-124285714D01*
X97380952Y-124285714D01*
X97190476Y-124238095D01*
X97095238Y-124190476D01*
X97000000Y-124095238D01*
X96952380Y-123952380D01*
X96952380Y-123857142D01*
X97000000Y-123714285D01*
X97047619Y-123666666D01*
X97047619Y-123285714D02*
X97000000Y-123238095D01*
X96952380Y-123142857D01*
X96952380Y-122904761D01*
X97000000Y-122809523D01*
X97047619Y-122761904D01*
X97142857Y-122714285D01*
X97238095Y-122714285D01*
X97380952Y-122761904D01*
X97952380Y-123333333D01*
X97952380Y-122714285D01*
%TO.C,U1*%
X106000000Y-124297619D02*
X106000000Y-123488095D01*
X105952380Y-123392857D01*
X105904761Y-123345238D01*
X105809523Y-123297619D01*
X105619047Y-123297619D01*
X105523809Y-123345238D01*
X105476190Y-123392857D01*
X105428571Y-123488095D01*
X105428571Y-124297619D01*
X105190476Y-123202380D02*
X104428571Y-123202380D01*
X104190476Y-123297619D02*
X104190476Y-124297619D01*
X103952380Y-124297619D01*
X103809523Y-124250000D01*
X103714285Y-124154761D01*
X103666666Y-124059523D01*
X103619047Y-123869047D01*
X103619047Y-123726190D01*
X103666666Y-123535714D01*
X103714285Y-123440476D01*
X103809523Y-123345238D01*
X103952380Y-123297619D01*
X104190476Y-123297619D01*
X102619047Y-123297619D02*
X102952380Y-123773809D01*
X103190476Y-123297619D02*
X103190476Y-124297619D01*
X102809523Y-124297619D01*
X102714285Y-124250000D01*
X102666666Y-124202380D01*
X102619047Y-124107142D01*
X102619047Y-123964285D01*
X102666666Y-123869047D01*
X102714285Y-123821428D01*
X102809523Y-123773809D01*
X103190476Y-123773809D01*
X102333333Y-124297619D02*
X102000000Y-123297619D01*
X101666666Y-124297619D01*
X100857142Y-124297619D02*
X101333333Y-124297619D01*
X101380952Y-123821428D01*
X101333333Y-123869047D01*
X101238095Y-123916666D01*
X101000000Y-123916666D01*
X100904761Y-123869047D01*
X100857142Y-123821428D01*
X100809523Y-123726190D01*
X100809523Y-123488095D01*
X100857142Y-123392857D01*
X100904761Y-123345238D01*
X101000000Y-123297619D01*
X101238095Y-123297619D01*
X101333333Y-123345238D01*
X101380952Y-123392857D01*
X100190476Y-124297619D02*
X100095238Y-124297619D01*
X100000000Y-124250000D01*
X99952380Y-124202380D01*
X99904761Y-124107142D01*
X99857142Y-123916666D01*
X99857142Y-123678571D01*
X99904761Y-123488095D01*
X99952380Y-123392857D01*
X100000000Y-123345238D01*
X100095238Y-123297619D01*
X100190476Y-123297619D01*
X100285714Y-123345238D01*
X100333333Y-123392857D01*
X100380952Y-123488095D01*
X100428571Y-123678571D01*
X100428571Y-123916666D01*
X100380952Y-124107142D01*
X100333333Y-124202380D01*
X100285714Y-124250000D01*
X100190476Y-124297619D01*
X98952380Y-124297619D02*
X99428571Y-124297619D01*
X99476190Y-123821428D01*
X99428571Y-123869047D01*
X99333333Y-123916666D01*
X99095238Y-123916666D01*
X99000000Y-123869047D01*
X98952380Y-123821428D01*
X98904761Y-123726190D01*
X98904761Y-123488095D01*
X98952380Y-123392857D01*
X99000000Y-123345238D01*
X99095238Y-123297619D01*
X99333333Y-123297619D01*
X99428571Y-123345238D01*
X99476190Y-123392857D01*
X98571428Y-124297619D02*
X97952380Y-124297619D01*
X98285714Y-123916666D01*
X98142857Y-123916666D01*
X98047619Y-123869047D01*
X98000000Y-123821428D01*
X97952380Y-123726190D01*
X97952380Y-123488095D01*
X98000000Y-123392857D01*
X98047619Y-123345238D01*
X98142857Y-123297619D01*
X98428571Y-123297619D01*
X98523809Y-123345238D01*
X98571428Y-123392857D01*
D11*
%TO.C,J1*%
X100900000Y-121825000D02*
X100900000Y-125635000D01*
X100900000Y-121825000D02*
X99100000Y-121825000D01*
X100900000Y-125635000D02*
X99100000Y-125635000D01*
X99100000Y-121825000D02*
X99100000Y-125635000D01*
%TO.C,C2*%
X96575000Y-121975000D02*
X96575000Y-125025000D01*
X98425000Y-121975000D02*
X98425000Y-125025000D01*
X96575000Y-121975000D02*
X98425000Y-121975000D01*
X96575000Y-125025000D02*
X98425000Y-125025000D01*
%TO.C,U1*%
X103520000Y-124450000D02*
X103520000Y-123550000D01*
X103520000Y-124450000D02*
X100480000Y-124450000D01*
X100480000Y-124450000D02*
X100480000Y-123050000D01*
X103520000Y-123550000D02*
X102900000Y-123050000D01*
X102900000Y-123050000D02*
X100480000Y-123050000D01*
%TD*%
M02*
