%TF.GenerationSoftware,KiCad,Pcbnew,(6.0.5)*%
%TF.CreationDate,2022-07-04T14:56:29-04:00*%
%TF.ProjectId,magdilocks,6d616764-696c-46f6-936b-732e6b696361,rev?*%
%TF.SameCoordinates,Original*%
%TF.FileFunction,Copper,L2,Bot*%
%TF.FilePolarity,Positive*%
%FSLAX46Y46*%
G04 Gerber Fmt 4.6, Leading zero omitted, Abs format (unit mm)*
G04 Created by KiCad (PCBNEW (6.0.5)) date 2022-07-04 14:56:29*
%MOMM*%
%LPD*%
G01*
G04 APERTURE LIST*
%TA.AperFunction,ComponentPad*%
%ADD10O,1.150000X1.700000*%
%TD*%
%TA.AperFunction,ComponentPad*%
%ADD11O,1.700000X1.150000*%
%TD*%
%TA.AperFunction,ViaPad*%
%ADD12C,0.800000*%
%TD*%
%TA.AperFunction,Conductor*%
%ADD13C,0.250000*%
%TD*%
G04 APERTURE END LIST*
D10*
%TO.P,J2,3*%
%TO.N,GND*%
X94960000Y-132000000D03*
%TO.P,J2,2*%
%TO.N,/OUT_RAW*%
X96230000Y-132000000D03*
%TO.P,J2,1*%
%TO.N,/OUT_FLT*%
X97500000Y-132000000D03*
%TD*%
%TO.P,J3,1*%
%TO.N,+3V3*%
X97500000Y-119000000D03*
%TO.P,J3,2*%
%TO.N,/SDA*%
X96230000Y-119000000D03*
%TO.P,J3,3*%
%TO.N,/SCL*%
X94960000Y-119000000D03*
%TD*%
D11*
%TO.P,J1,1*%
%TO.N,+3V3*%
X99605000Y-122460000D03*
%TO.P,J1,2*%
%TO.N,/OUT_RAW*%
X99605000Y-123730000D03*
%TO.P,J1,3*%
%TO.N,GND*%
X99605000Y-125000000D03*
%TD*%
D12*
%TO.N,GND*%
X93500000Y-130750000D03*
X97000000Y-127250000D03*
X93500000Y-125000000D03*
X93500000Y-121500000D03*
X93500000Y-118500000D03*
%TO.N,+3V3*%
X102000000Y-122399500D03*
%TO.N,/SCL*%
X102500000Y-126250000D03*
%TO.N,/SDA*%
X101250000Y-125950980D03*
%TD*%
D13*
%TO.N,/SCL*%
X94960000Y-120210000D02*
X94960000Y-119000000D01*
X97800480Y-126186197D02*
X97800480Y-123050480D01*
X97800480Y-123050480D02*
X94960000Y-120210000D01*
X98289763Y-126675480D02*
X97800480Y-126186197D01*
X102074520Y-126675480D02*
X98289763Y-126675480D01*
X102500000Y-126250000D02*
X102074520Y-126675480D01*
%TO.N,/SDA*%
X96230000Y-120230000D02*
X96230000Y-119000000D01*
X98250000Y-122250000D02*
X96230000Y-120230000D01*
X98475960Y-126225960D02*
X98250000Y-126000000D01*
X98250000Y-126000000D02*
X98250000Y-122250000D01*
X100975020Y-126225960D02*
X98475960Y-126225960D01*
X101250000Y-125950980D02*
X100975020Y-126225960D01*
%TO.N,+3V3*%
X100060500Y-122399500D02*
X100000000Y-122460000D01*
X102000000Y-122399500D02*
X100060500Y-122399500D01*
X100210000Y-122250000D02*
X100000000Y-122460000D01*
%TD*%
%TA.AperFunction,Conductor*%
%TO.N,GND*%
G36*
X94276840Y-118120502D02*
G01*
X94323333Y-118174158D01*
X94333437Y-118244432D01*
X94314632Y-118294753D01*
X94260980Y-118378004D01*
X94258569Y-118384627D01*
X94258568Y-118384630D01*
X94203885Y-118534870D01*
X94203884Y-118534875D01*
X94201475Y-118541493D01*
X94184500Y-118675863D01*
X94184500Y-119318746D01*
X94198987Y-119447898D01*
X94256204Y-119612203D01*
X94348400Y-119759748D01*
X94353363Y-119764746D01*
X94353364Y-119764747D01*
X94380032Y-119791602D01*
X94470994Y-119883201D01*
X94476940Y-119886975D01*
X94476942Y-119886976D01*
X94576014Y-119949849D01*
X94622813Y-120003238D01*
X94634500Y-120056234D01*
X94634500Y-120190290D01*
X94634020Y-120201272D01*
X94630736Y-120238807D01*
X94638949Y-120269456D01*
X94640491Y-120275210D01*
X94642870Y-120285942D01*
X94649412Y-120323045D01*
X94654923Y-120332590D01*
X94656115Y-120335866D01*
X94657592Y-120339034D01*
X94660446Y-120349684D01*
X94666770Y-120358715D01*
X94682055Y-120380544D01*
X94687961Y-120389815D01*
X94696760Y-120405054D01*
X94706806Y-120422455D01*
X94715251Y-120429541D01*
X94735682Y-120446685D01*
X94743785Y-120454111D01*
X97438075Y-123148402D01*
X97472101Y-123210714D01*
X97474980Y-123237497D01*
X97474980Y-126166487D01*
X97474500Y-126177469D01*
X97471216Y-126215004D01*
X97474070Y-126225653D01*
X97480971Y-126251407D01*
X97483350Y-126262139D01*
X97489892Y-126299242D01*
X97495403Y-126308787D01*
X97496595Y-126312063D01*
X97498072Y-126315231D01*
X97500926Y-126325881D01*
X97507250Y-126334912D01*
X97522535Y-126356741D01*
X97528441Y-126366012D01*
X97541773Y-126389103D01*
X97547286Y-126398652D01*
X97555731Y-126405738D01*
X97576162Y-126422882D01*
X97584265Y-126430308D01*
X98045652Y-126891695D01*
X98053079Y-126899799D01*
X98077308Y-126928674D01*
X98086857Y-126934187D01*
X98109948Y-126947519D01*
X98119219Y-126953425D01*
X98150079Y-126975034D01*
X98160729Y-126977888D01*
X98163897Y-126979365D01*
X98167173Y-126980557D01*
X98176718Y-126986068D01*
X98210462Y-126992018D01*
X98213821Y-126992610D01*
X98224540Y-126994986D01*
X98226577Y-126995532D01*
X98232289Y-126997062D01*
X98292914Y-127034007D01*
X98323941Y-127097864D01*
X98318609Y-127160408D01*
X98308989Y-127187884D01*
X98301940Y-127250290D01*
X98299191Y-127274622D01*
X98296726Y-127288957D01*
X98294345Y-127299213D01*
X98294344Y-127299931D01*
X98295922Y-127306859D01*
X98296354Y-127308756D01*
X98299500Y-127336737D01*
X98299500Y-131123769D01*
X98279498Y-131191890D01*
X98225842Y-131238383D01*
X98155568Y-131248487D01*
X98090988Y-131218993D01*
X98084094Y-131212553D01*
X97993969Y-131121796D01*
X97993965Y-131121793D01*
X97989006Y-131116799D01*
X97978342Y-131110031D01*
X97892836Y-131055768D01*
X97842108Y-131023575D01*
X97720281Y-130980194D01*
X97684841Y-130967574D01*
X97684839Y-130967573D01*
X97678207Y-130965212D01*
X97671221Y-130964379D01*
X97671217Y-130964378D01*
X97548107Y-130949699D01*
X97505448Y-130944612D01*
X97498445Y-130945348D01*
X97498444Y-130945348D01*
X97452109Y-130950218D01*
X97332419Y-130962798D01*
X97325753Y-130965067D01*
X97325750Y-130965068D01*
X97174386Y-131016597D01*
X97174383Y-131016598D01*
X97167719Y-131018867D01*
X97019533Y-131110031D01*
X97005505Y-131123769D01*
X96953162Y-131175027D01*
X96890497Y-131208398D01*
X96819738Y-131202592D01*
X96775598Y-131173787D01*
X96723973Y-131121800D01*
X96723968Y-131121796D01*
X96719006Y-131116799D01*
X96708342Y-131110031D01*
X96622836Y-131055768D01*
X96572108Y-131023575D01*
X96450281Y-130980194D01*
X96414841Y-130967574D01*
X96414839Y-130967573D01*
X96408207Y-130965212D01*
X96401221Y-130964379D01*
X96401217Y-130964378D01*
X96278107Y-130949699D01*
X96235448Y-130944612D01*
X96228445Y-130945348D01*
X96228444Y-130945348D01*
X96182109Y-130950218D01*
X96062419Y-130962798D01*
X96055753Y-130965067D01*
X96055750Y-130965068D01*
X95897719Y-131018867D01*
X95897272Y-131017553D01*
X95834711Y-131027280D01*
X95769797Y-130998527D01*
X95752125Y-130980194D01*
X95751550Y-130979462D01*
X95743311Y-130970810D01*
X95596299Y-130843240D01*
X95586567Y-130836298D01*
X95418076Y-130738823D01*
X95407215Y-130733850D01*
X95226038Y-130670935D01*
X95217993Y-130672082D01*
X95214000Y-130685651D01*
X95214000Y-132128000D01*
X95193998Y-132196121D01*
X95140342Y-132242614D01*
X95088000Y-132254000D01*
X93895115Y-132254000D01*
X93879876Y-132258475D01*
X93878671Y-132259865D01*
X93877000Y-132267548D01*
X93877000Y-132323637D01*
X93877285Y-132329613D01*
X93891132Y-132474745D01*
X93893391Y-132486480D01*
X93948188Y-132673268D01*
X93952623Y-132684356D01*
X93968822Y-132715808D01*
X93982231Y-132785527D01*
X93955818Y-132851427D01*
X93897969Y-132892586D01*
X93856806Y-132899500D01*
X93237138Y-132899500D01*
X93208862Y-132896286D01*
X93200428Y-132894344D01*
X93200427Y-132894344D01*
X93201497Y-132889697D01*
X93159930Y-132877368D01*
X93113584Y-132823586D01*
X93105457Y-132799409D01*
X93103617Y-132791291D01*
X93100500Y-132763439D01*
X93100500Y-131727885D01*
X93877000Y-131727885D01*
X93881475Y-131743124D01*
X93882865Y-131744329D01*
X93890548Y-131746000D01*
X94687885Y-131746000D01*
X94703124Y-131741525D01*
X94704329Y-131740135D01*
X94706000Y-131732452D01*
X94706000Y-130690314D01*
X94702027Y-130676783D01*
X94692601Y-130675428D01*
X94611639Y-130694940D01*
X94600344Y-130698829D01*
X94423137Y-130779400D01*
X94412795Y-130785347D01*
X94254013Y-130897979D01*
X94244984Y-130905772D01*
X94110369Y-131046393D01*
X94102965Y-131055768D01*
X93997380Y-131219292D01*
X93991879Y-131229906D01*
X93919117Y-131410449D01*
X93915725Y-131421898D01*
X93878134Y-131614391D01*
X93877064Y-131623201D01*
X93877000Y-131625828D01*
X93877000Y-131727885D01*
X93100500Y-131727885D01*
X93100500Y-118237371D01*
X93103755Y-118208918D01*
X93105656Y-118200717D01*
X93108612Y-118201402D01*
X93130998Y-118148502D01*
X93189624Y-118108458D01*
X93200679Y-118105421D01*
X93208703Y-118103605D01*
X93236504Y-118100500D01*
X94208719Y-118100500D01*
X94276840Y-118120502D01*
G37*
%TD.AperFunction*%
%TA.AperFunction,Conductor*%
G36*
X103291155Y-121803705D02*
G01*
X103299641Y-121805656D01*
X103299642Y-121805656D01*
X103298564Y-121810345D01*
X103339799Y-121822453D01*
X103386292Y-121876109D01*
X103394570Y-121900641D01*
X103394588Y-121900718D01*
X103396394Y-121908699D01*
X103399500Y-121936504D01*
X103399500Y-126662920D01*
X103396295Y-126691155D01*
X103394344Y-126699641D01*
X103394344Y-126699642D01*
X103389655Y-126698564D01*
X103377547Y-126739799D01*
X103323891Y-126786292D01*
X103299359Y-126794570D01*
X103291298Y-126796394D01*
X103263496Y-126799500D01*
X103090771Y-126799500D01*
X103022650Y-126779498D01*
X102976157Y-126725842D01*
X102966053Y-126655568D01*
X102990809Y-126596796D01*
X103019506Y-126559397D01*
X103019508Y-126559394D01*
X103024536Y-126552841D01*
X103085044Y-126406762D01*
X103105682Y-126250000D01*
X103094687Y-126166487D01*
X103086122Y-126101426D01*
X103085044Y-126093238D01*
X103024536Y-125947159D01*
X102928282Y-125821718D01*
X102802841Y-125725464D01*
X102656762Y-125664956D01*
X102500000Y-125644318D01*
X102343238Y-125664956D01*
X102197159Y-125725464D01*
X102071718Y-125821718D01*
X102066695Y-125828264D01*
X102066694Y-125828265D01*
X102056476Y-125841582D01*
X101999139Y-125883450D01*
X101928268Y-125887674D01*
X101866365Y-125852911D01*
X101835676Y-125799020D01*
X101835044Y-125794218D01*
X101774536Y-125648139D01*
X101678282Y-125522698D01*
X101552841Y-125426444D01*
X101406762Y-125365936D01*
X101250000Y-125345298D01*
X101241812Y-125346376D01*
X101101424Y-125364858D01*
X101101422Y-125364859D01*
X101093238Y-125365936D01*
X101089256Y-125367585D01*
X101020108Y-125365940D01*
X100961312Y-125326147D01*
X100933733Y-125263706D01*
X100932919Y-125257993D01*
X100919349Y-125254000D01*
X99477000Y-125254000D01*
X99408879Y-125233998D01*
X99362386Y-125180342D01*
X99351000Y-125128000D01*
X99351000Y-124872000D01*
X99371002Y-124803879D01*
X99424658Y-124757386D01*
X99477000Y-124746000D01*
X100914686Y-124746000D01*
X100928217Y-124742027D01*
X100929572Y-124732601D01*
X100910060Y-124651639D01*
X100906171Y-124640344D01*
X100825600Y-124463137D01*
X100819653Y-124452795D01*
X100707021Y-124294013D01*
X100699228Y-124284985D01*
X100613779Y-124203185D01*
X100578403Y-124141630D01*
X100582211Y-124069900D01*
X100637426Y-123914841D01*
X100637427Y-123914839D01*
X100639788Y-123908207D01*
X100640621Y-123901221D01*
X100640622Y-123901217D01*
X100659554Y-123742441D01*
X100660388Y-123735448D01*
X100642202Y-123562419D01*
X100639932Y-123555750D01*
X100588403Y-123404386D01*
X100588402Y-123404383D01*
X100586133Y-123397719D01*
X100494969Y-123249533D01*
X100429972Y-123183161D01*
X100396602Y-123120497D01*
X100402408Y-123049738D01*
X100431213Y-123005598D01*
X100483200Y-122953973D01*
X100483203Y-122953969D01*
X100488201Y-122949006D01*
X100504048Y-122924036D01*
X100577649Y-122808058D01*
X100581425Y-122802108D01*
X100583709Y-122795694D01*
X100631487Y-122743306D01*
X100696893Y-122725000D01*
X101430714Y-122725000D01*
X101498835Y-122745002D01*
X101530677Y-122774296D01*
X101571718Y-122827782D01*
X101697159Y-122924036D01*
X101843238Y-122984544D01*
X102000000Y-123005182D01*
X102008188Y-123004104D01*
X102148574Y-122985622D01*
X102156762Y-122984544D01*
X102302841Y-122924036D01*
X102428282Y-122827782D01*
X102524536Y-122702341D01*
X102585044Y-122556262D01*
X102605682Y-122399500D01*
X102585044Y-122242738D01*
X102524536Y-122096659D01*
X102469322Y-122024702D01*
X102452826Y-122003204D01*
X102427226Y-121936983D01*
X102441491Y-121867434D01*
X102491092Y-121816639D01*
X102552789Y-121800500D01*
X103262920Y-121800500D01*
X103291155Y-121803705D01*
G37*
%TD.AperFunction*%
%TD*%
M02*
