%TF.GenerationSoftware,KiCad,Pcbnew,(6.0.5)*%
%TF.CreationDate,2022-07-02T16:25:46-04:00*%
%TF.ProjectId,magdilocks,6d616764-696c-46f6-936b-732e6b696361,rev?*%
%TF.SameCoordinates,Original*%
%TF.FileFunction,Legend,Top*%
%TF.FilePolarity,Positive*%
%FSLAX46Y46*%
G04 Gerber Fmt 4.6, Leading zero omitted, Abs format (unit mm)*
G04 Created by KiCad (PCBNEW (6.0.5)) date 2022-07-02 16:25:46*
%MOMM*%
%LPD*%
G01*
G04 APERTURE LIST*
%ADD10C,0.120000*%
G04 APERTURE END LIST*
D10*
%TO.C,J3*%
X98600000Y-128900000D02*
X98600000Y-128100000D01*
X98200000Y-126500000D02*
X98200000Y-128500000D01*
X97700000Y-128900000D02*
X98600000Y-128900000D01*
X98200000Y-128500000D02*
X94200000Y-128500000D01*
X94200000Y-126500000D02*
X98200000Y-126500000D01*
X94200000Y-128500000D02*
X94200000Y-126500000D01*
%TO.C,J1*%
X99000000Y-121760000D02*
X101000000Y-121760000D01*
X101400000Y-122260000D02*
X101400000Y-121360000D01*
X99000000Y-125760000D02*
X99000000Y-121760000D01*
X101000000Y-125760000D02*
X99000000Y-125760000D01*
X101400000Y-121360000D02*
X100600000Y-121360000D01*
X101000000Y-121760000D02*
X101000000Y-125760000D01*
%TO.C,C1*%
X94200000Y-122600000D02*
X90800000Y-122600000D01*
X94200000Y-120400000D02*
X94200000Y-122600000D01*
X90800000Y-122600000D02*
X90800000Y-120400000D01*
X90800000Y-120400000D02*
X94200000Y-120400000D01*
%TO.C,R4*%
X92400000Y-126000000D02*
X90600000Y-126000000D01*
X92400000Y-123000000D02*
X92400000Y-126000000D01*
X90600000Y-123000000D02*
X92400000Y-123000000D01*
X90600000Y-126000000D02*
X90600000Y-123000000D01*
%TO.C,J2*%
X98200000Y-120000000D02*
X94200000Y-120000000D01*
X94200000Y-120000000D02*
X94200000Y-118000000D01*
X98600000Y-120400000D02*
X98600000Y-119600000D01*
X97700000Y-120400000D02*
X98600000Y-120400000D01*
X94200000Y-118000000D02*
X98200000Y-118000000D01*
X98200000Y-118000000D02*
X98200000Y-120000000D01*
%TO.C,R2*%
X96400000Y-126000000D02*
X94600000Y-126000000D01*
X94600000Y-123000000D02*
X96400000Y-123000000D01*
X96400000Y-123000000D02*
X96400000Y-126000000D01*
X94600000Y-126000000D02*
X94600000Y-123000000D01*
%TO.C,U2*%
X103800000Y-125750000D02*
X103800000Y-121750000D01*
X99700000Y-124950000D02*
X99700000Y-125350000D01*
X100000000Y-125350000D02*
X100000000Y-124950000D01*
X100200000Y-121750000D02*
X100200000Y-125750000D01*
X100200000Y-125750000D02*
X103800000Y-125750000D01*
X99700000Y-125350000D02*
X100000000Y-125350000D01*
X103800000Y-121750000D02*
X100200000Y-121750000D01*
X100000000Y-124950000D02*
X99700000Y-124950000D01*
%TO.C,C2*%
X98200000Y-122600000D02*
X94800000Y-122600000D01*
X94800000Y-120400000D02*
X98200000Y-120400000D01*
X98200000Y-120400000D02*
X98200000Y-122600000D01*
X94800000Y-122600000D02*
X94800000Y-120400000D01*
%TO.C,R3*%
X96600000Y-126000000D02*
X96600000Y-123000000D01*
X96600000Y-123000000D02*
X98400000Y-123000000D01*
X98400000Y-126000000D02*
X96600000Y-126000000D01*
X98400000Y-123000000D02*
X98400000Y-126000000D01*
%TO.C,R1*%
X92600000Y-126000000D02*
X92600000Y-123000000D01*
X94400000Y-126000000D02*
X92600000Y-126000000D01*
X92600000Y-123000000D02*
X94400000Y-123000000D01*
X94400000Y-123000000D02*
X94400000Y-126000000D01*
%TO.C,U1*%
X102400000Y-122950000D02*
X101700000Y-122950000D01*
X103800000Y-122950000D02*
X103800000Y-123250000D01*
X104000000Y-122950000D02*
X103800000Y-122950000D01*
X100600000Y-122950000D02*
X100400000Y-122950000D01*
X103600000Y-122950000D02*
X103400000Y-122950000D01*
X100400000Y-124550000D02*
X101400000Y-124550000D01*
X104000000Y-123250000D02*
X104000000Y-122950000D01*
X103600000Y-122950000D02*
X103600000Y-124550000D01*
X100400000Y-122950000D02*
X100400000Y-124550000D01*
X103600000Y-124550000D02*
X102600000Y-124550000D01*
X103800000Y-123250000D02*
X104000000Y-123250000D01*
%TD*%
M02*
