%TF.GenerationSoftware,KiCad,Pcbnew,(6.0.5)*%
%TF.CreationDate,2022-07-02T16:25:46-04:00*%
%TF.ProjectId,magdilocks,6d616764-696c-46f6-936b-732e6b696361,rev?*%
%TF.SameCoordinates,Original*%
%TF.FileFunction,Legend,Bot*%
%TF.FilePolarity,Positive*%
%FSLAX46Y46*%
G04 Gerber Fmt 4.6, Leading zero omitted, Abs format (unit mm)*
G04 Created by KiCad (PCBNEW (6.0.5)) date 2022-07-02 16:25:46*
%MOMM*%
%LPD*%
G01*
G04 APERTURE LIST*
%ADD10C,0.150000*%
G04 APERTURE END LIST*
D10*
X97052380Y-120261904D02*
X97052380Y-120880952D01*
X97433333Y-120547619D01*
X97433333Y-120690476D01*
X97480952Y-120785714D01*
X97528571Y-120833333D01*
X97623809Y-120880952D01*
X97861904Y-120880952D01*
X97957142Y-120833333D01*
X98004761Y-120785714D01*
X98052380Y-120690476D01*
X98052380Y-120404761D01*
X98004761Y-120309523D01*
X97957142Y-120261904D01*
X97052380Y-121166666D02*
X98052380Y-121500000D01*
X97052380Y-121833333D01*
X97052380Y-122071428D02*
X97052380Y-122690476D01*
X97433333Y-122357142D01*
X97433333Y-122500000D01*
X97480952Y-122595238D01*
X97528571Y-122642857D01*
X97623809Y-122690476D01*
X97861904Y-122690476D01*
X97957142Y-122642857D01*
X98004761Y-122595238D01*
X98052380Y-122500000D01*
X98052380Y-122214285D01*
X98004761Y-122119047D01*
X97957142Y-122071428D01*
X96228571Y-120557142D02*
X96228571Y-120223809D01*
X96752380Y-120223809D02*
X95752380Y-120223809D01*
X95752380Y-120700000D01*
X96752380Y-121557142D02*
X96752380Y-121080952D01*
X95752380Y-121080952D01*
X95752380Y-121747619D02*
X95752380Y-122319047D01*
X96752380Y-122033333D02*
X95752380Y-122033333D01*
X95452380Y-120809523D02*
X94976190Y-120476190D01*
X95452380Y-120238095D02*
X94452380Y-120238095D01*
X94452380Y-120619047D01*
X94500000Y-120714285D01*
X94547619Y-120761904D01*
X94642857Y-120809523D01*
X94785714Y-120809523D01*
X94880952Y-120761904D01*
X94928571Y-120714285D01*
X94976190Y-120619047D01*
X94976190Y-120238095D01*
X95166666Y-121190476D02*
X95166666Y-121666666D01*
X95452380Y-121095238D02*
X94452380Y-121428571D01*
X95452380Y-121761904D01*
X94452380Y-122000000D02*
X95452380Y-122238095D01*
X94738095Y-122428571D01*
X95452380Y-122619047D01*
X94452380Y-122857142D01*
X97904761Y-123785714D02*
X97952380Y-123928571D01*
X97952380Y-124166666D01*
X97904761Y-124261904D01*
X97857142Y-124309523D01*
X97761904Y-124357142D01*
X97666666Y-124357142D01*
X97571428Y-124309523D01*
X97523809Y-124261904D01*
X97476190Y-124166666D01*
X97428571Y-123976190D01*
X97380952Y-123880952D01*
X97333333Y-123833333D01*
X97238095Y-123785714D01*
X97142857Y-123785714D01*
X97047619Y-123833333D01*
X97000000Y-123880952D01*
X96952380Y-123976190D01*
X96952380Y-124214285D01*
X97000000Y-124357142D01*
X97952380Y-124785714D02*
X96952380Y-124785714D01*
X96952380Y-125023809D01*
X97000000Y-125166666D01*
X97095238Y-125261904D01*
X97190476Y-125309523D01*
X97380952Y-125357142D01*
X97523809Y-125357142D01*
X97714285Y-125309523D01*
X97809523Y-125261904D01*
X97904761Y-125166666D01*
X97952380Y-125023809D01*
X97952380Y-124785714D01*
X97666666Y-125738095D02*
X97666666Y-126214285D01*
X97952380Y-125642857D02*
X96952380Y-125976190D01*
X97952380Y-126309523D01*
X96604761Y-123809523D02*
X96652380Y-123952380D01*
X96652380Y-124190476D01*
X96604761Y-124285714D01*
X96557142Y-124333333D01*
X96461904Y-124380952D01*
X96366666Y-124380952D01*
X96271428Y-124333333D01*
X96223809Y-124285714D01*
X96176190Y-124190476D01*
X96128571Y-124000000D01*
X96080952Y-123904761D01*
X96033333Y-123857142D01*
X95938095Y-123809523D01*
X95842857Y-123809523D01*
X95747619Y-123857142D01*
X95700000Y-123904761D01*
X95652380Y-124000000D01*
X95652380Y-124238095D01*
X95700000Y-124380952D01*
X96557142Y-125380952D02*
X96604761Y-125333333D01*
X96652380Y-125190476D01*
X96652380Y-125095238D01*
X96604761Y-124952380D01*
X96509523Y-124857142D01*
X96414285Y-124809523D01*
X96223809Y-124761904D01*
X96080952Y-124761904D01*
X95890476Y-124809523D01*
X95795238Y-124857142D01*
X95700000Y-124952380D01*
X95652380Y-125095238D01*
X95652380Y-125190476D01*
X95700000Y-125333333D01*
X95747619Y-125380952D01*
X96652380Y-126285714D02*
X96652380Y-125809523D01*
X95652380Y-125809523D01*
X94500000Y-124238095D02*
X94452380Y-124142857D01*
X94452380Y-124000000D01*
X94500000Y-123857142D01*
X94595238Y-123761904D01*
X94690476Y-123714285D01*
X94880952Y-123666666D01*
X95023809Y-123666666D01*
X95214285Y-123714285D01*
X95309523Y-123761904D01*
X95404761Y-123857142D01*
X95452380Y-124000000D01*
X95452380Y-124095238D01*
X95404761Y-124238095D01*
X95357142Y-124285714D01*
X95023809Y-124285714D01*
X95023809Y-124095238D01*
X95452380Y-124714285D02*
X94452380Y-124714285D01*
X95452380Y-125285714D01*
X94452380Y-125285714D01*
X95452380Y-125761904D02*
X94452380Y-125761904D01*
X94452380Y-126000000D01*
X94500000Y-126142857D01*
X94595238Y-126238095D01*
X94690476Y-126285714D01*
X94880952Y-126333333D01*
X95023809Y-126333333D01*
X95214285Y-126285714D01*
X95309523Y-126238095D01*
X95404761Y-126142857D01*
X95452380Y-126000000D01*
X95452380Y-125761904D01*
M02*
