%TF.GenerationSoftware,KiCad,Pcbnew,(6.0.5)*%
%TF.CreationDate,2022-07-02T16:25:46-04:00*%
%TF.ProjectId,magdilocks,6d616764-696c-46f6-936b-732e6b696361,rev?*%
%TF.SameCoordinates,Original*%
%TF.FileFunction,Copper,L1,Top*%
%TF.FilePolarity,Positive*%
%FSLAX46Y46*%
G04 Gerber Fmt 4.6, Leading zero omitted, Abs format (unit mm)*
G04 Created by KiCad (PCBNEW (6.0.5)) date 2022-07-02 16:25:46*
%MOMM*%
%LPD*%
G01*
G04 APERTURE LIST*
G04 Aperture macros list*
%AMRoundRect*
0 Rectangle with rounded corners*
0 $1 Rounding radius*
0 $2 $3 $4 $5 $6 $7 $8 $9 X,Y pos of 4 corners*
0 Add a 4 corners polygon primitive as box body*
4,1,4,$2,$3,$4,$5,$6,$7,$8,$9,$2,$3,0*
0 Add four circle primitives for the rounded corners*
1,1,$1+$1,$2,$3*
1,1,$1+$1,$4,$5*
1,1,$1+$1,$6,$7*
1,1,$1+$1,$8,$9*
0 Add four rect primitives between the rounded corners*
20,1,$1+$1,$2,$3,$4,$5,0*
20,1,$1+$1,$4,$5,$6,$7,0*
20,1,$1+$1,$6,$7,$8,$9,0*
20,1,$1+$1,$8,$9,$2,$3,0*%
G04 Aperture macros list end*
%TA.AperFunction,ComponentPad*%
%ADD10O,1.150000X1.700000*%
%TD*%
%TA.AperFunction,ComponentPad*%
%ADD11O,1.700000X1.150000*%
%TD*%
%TA.AperFunction,SMDPad,CuDef*%
%ADD12RoundRect,0.225000X0.225000X0.425000X-0.225000X0.425000X-0.225000X-0.425000X0.225000X-0.425000X0*%
%TD*%
%TA.AperFunction,SMDPad,CuDef*%
%ADD13RoundRect,0.175000X0.475000X-0.175000X0.475000X0.175000X-0.475000X0.175000X-0.475000X-0.175000X0*%
%TD*%
%TA.AperFunction,SMDPad,CuDef*%
%ADD14RoundRect,0.175000X-0.475000X0.175000X-0.475000X-0.175000X0.475000X-0.175000X0.475000X0.175000X0*%
%TD*%
%TA.AperFunction,SMDPad,CuDef*%
%ADD15RoundRect,0.175000X0.175000X-0.325000X0.175000X0.325000X-0.175000X0.325000X-0.175000X-0.325000X0*%
%TD*%
%TA.AperFunction,SMDPad,CuDef*%
%ADD16RoundRect,0.150000X-0.150000X0.500000X-0.150000X-0.500000X0.150000X-0.500000X0.150000X0.500000X0*%
%TD*%
%TA.AperFunction,ViaPad*%
%ADD17C,0.800000*%
%TD*%
%TA.AperFunction,Conductor*%
%ADD18C,0.250000*%
%TD*%
%TA.AperFunction,Conductor*%
%ADD19C,0.400000*%
%TD*%
G04 APERTURE END LIST*
D10*
%TO.P,J3,1*%
%TO.N,/SDA*%
X97500000Y-127500000D03*
%TO.P,J3,2*%
%TO.N,/SCL*%
X96230000Y-127500000D03*
%TO.P,J3,3*%
%TO.N,GND*%
X94960000Y-127500000D03*
%TD*%
D11*
%TO.P,J1,1*%
%TO.N,+3V3*%
X99605000Y-122460000D03*
%TO.P,J1,2*%
%TO.N,/OUT_RAW*%
X99605000Y-123730000D03*
%TO.P,J1,3*%
%TO.N,GND*%
X99605000Y-125000000D03*
%TD*%
D12*
%TO.P,C1,1*%
%TO.N,/OUT_FLT*%
X93450000Y-121500000D03*
%TO.P,C1,2*%
%TO.N,GND*%
X91550000Y-121500000D03*
%TD*%
D13*
%TO.P,R4,1*%
%TO.N,/OUT_RAW*%
X91500000Y-125450000D03*
%TO.P,R4,2*%
%TO.N,/OUT_FLT*%
X91500000Y-123550000D03*
%TD*%
D10*
%TO.P,J2,1*%
%TO.N,+3V3*%
X97500000Y-119000000D03*
%TO.P,J2,2*%
%TO.N,/OUT_FLT*%
X96230000Y-119000000D03*
%TO.P,J2,3*%
%TO.N,/OUT_RAW*%
X94960000Y-119000000D03*
%TD*%
D14*
%TO.P,R2,1*%
%TO.N,+3V3*%
X95500000Y-123550000D03*
%TO.P,R2,2*%
%TO.N,/SCL*%
X95500000Y-125450000D03*
%TD*%
D15*
%TO.P,U2,1,SDA*%
%TO.N,/SDA*%
X101050000Y-125050000D03*
%TO.P,U2,2,GND*%
%TO.N,GND*%
X102000000Y-125050000D03*
%TO.P,U2,3,SCL*%
%TO.N,/SCL*%
X102950000Y-125050000D03*
%TO.P,U2,4,VDD*%
%TO.N,+3V3*%
X102950000Y-122450000D03*
%TO.P,U2,5,ALERT*%
%TO.N,/OUT_RAW*%
X101050000Y-122450000D03*
%TD*%
D12*
%TO.P,C2,1*%
%TO.N,+3V3*%
X97450000Y-121500000D03*
%TO.P,C2,2*%
%TO.N,GND*%
X95550000Y-121500000D03*
%TD*%
D14*
%TO.P,R3,1*%
%TO.N,+3V3*%
X97500000Y-123550000D03*
%TO.P,R3,2*%
%TO.N,/SDA*%
X97500000Y-125450000D03*
%TD*%
%TO.P,R1,1*%
%TO.N,+3V3*%
X93500000Y-123550000D03*
%TO.P,R1,2*%
%TO.N,/OUT_RAW*%
X93500000Y-125450000D03*
%TD*%
D16*
%TO.P,U1,1,VCC*%
%TO.N,+3V3*%
X102950000Y-122700000D03*
%TO.P,U1,2,OUT*%
%TO.N,/OUT_RAW*%
X101050000Y-122700000D03*
%TO.P,U1,3,GND*%
%TO.N,GND*%
X102000000Y-124800000D03*
%TD*%
D17*
%TO.N,GND*%
X90749020Y-121500000D03*
X94500000Y-121500000D03*
%TO.N,+3V3*%
X102000000Y-122399500D03*
%TO.N,/SCL*%
X102500000Y-126250000D03*
%TO.N,/SDA*%
X101012299Y-126262299D03*
%TD*%
D18*
%TO.N,/OUT_FLT*%
X96230000Y-119277113D02*
X96230000Y-119000000D01*
X95057593Y-120449520D02*
X96230000Y-119277113D01*
X92000000Y-122750000D02*
X93250000Y-122750000D01*
X93450000Y-121057113D02*
X94057593Y-120449520D01*
X93450000Y-121500000D02*
X93450000Y-121057113D01*
X91500000Y-123250000D02*
X92000000Y-122750000D01*
X93450000Y-122550000D02*
X93450000Y-121500000D01*
X91500000Y-123550000D02*
X91500000Y-123250000D01*
X93250000Y-122750000D02*
X93450000Y-122550000D01*
X94057593Y-120449520D02*
X95057593Y-120449520D01*
%TO.N,GND*%
X100668093Y-124225480D02*
X100000000Y-124893573D01*
X90749020Y-121500000D02*
X91550000Y-121500000D01*
X94500000Y-121500000D02*
X95550000Y-121500000D01*
X102000000Y-124793573D02*
X101431907Y-124225480D01*
X101431907Y-124225480D02*
X100668093Y-124225480D01*
X102000000Y-125050000D02*
X102000000Y-124793573D01*
X100000000Y-124893573D02*
X100000000Y-125000000D01*
X102000000Y-124800000D02*
X102000000Y-125050000D01*
%TO.N,+3V3*%
X97450000Y-122450000D02*
X97500000Y-122500000D01*
X97450000Y-121500000D02*
X97450000Y-122450000D01*
X102050500Y-122450000D02*
X102000000Y-122399500D01*
X102950000Y-122450000D02*
X102050500Y-122450000D01*
X100000000Y-122400000D02*
X100000000Y-122460000D01*
D19*
X98410000Y-122460000D02*
X97450000Y-121500000D01*
D18*
X97450000Y-121500000D02*
X97500000Y-121450000D01*
D19*
X100000000Y-122460000D02*
X98410000Y-122460000D01*
D18*
X97500000Y-122500000D02*
X97500000Y-123550000D01*
X97500000Y-121450000D02*
X97500000Y-119000000D01*
X95500000Y-123550000D02*
X93500000Y-123550000D01*
X97500000Y-123550000D02*
X95500000Y-123550000D01*
X97450000Y-123500000D02*
X97500000Y-123550000D01*
%TO.N,/SCL*%
X96230000Y-126730000D02*
X96230000Y-127500000D01*
X95500000Y-125450000D02*
X95500000Y-126000000D01*
X95500000Y-126000000D02*
X96230000Y-126730000D01*
X102950000Y-125800000D02*
X102950000Y-125050000D01*
X102500000Y-126250000D02*
X102950000Y-125800000D01*
%TO.N,/SDA*%
X101012299Y-126262299D02*
X101050000Y-126224598D01*
X101050000Y-126224598D02*
X101050000Y-125050000D01*
X97500000Y-125450000D02*
X97500000Y-127500000D01*
%TO.N,/OUT_RAW*%
X90375480Y-119824520D02*
X90024520Y-120175480D01*
X90024520Y-125024520D02*
X90450000Y-125450000D01*
X98250000Y-124250000D02*
X94700000Y-124250000D01*
X100000000Y-123730000D02*
X98770000Y-123730000D01*
X94700000Y-124250000D02*
X93500000Y-125450000D01*
X90450000Y-125450000D02*
X91500000Y-125450000D01*
X101050000Y-123550000D02*
X100870000Y-123730000D01*
X93500000Y-125450000D02*
X91500000Y-125450000D01*
X98770000Y-123730000D02*
X98250000Y-124250000D01*
X94135480Y-119824520D02*
X90375480Y-119824520D01*
X90024520Y-120175480D02*
X90024520Y-125024520D01*
X94960000Y-119000000D02*
X94135480Y-119824520D01*
X100870000Y-123730000D02*
X100000000Y-123730000D01*
X101050000Y-122700000D02*
X101050000Y-123550000D01*
%TD*%
%TA.AperFunction,Conductor*%
%TO.N,GND*%
G36*
X98221998Y-124595502D02*
G01*
X98268491Y-124649158D01*
X98278595Y-124719432D01*
X98276293Y-124731338D01*
X98272165Y-124748272D01*
X98262539Y-124814667D01*
X98232970Y-124879213D01*
X98173198Y-124917526D01*
X98100637Y-124916970D01*
X98092546Y-124914469D01*
X98083759Y-124910174D01*
X98074080Y-124908762D01*
X98015117Y-124900160D01*
X98015111Y-124900160D01*
X98010590Y-124899500D01*
X96989410Y-124899500D01*
X96984860Y-124900170D01*
X96984857Y-124900170D01*
X96925290Y-124908939D01*
X96925289Y-124908939D01*
X96915604Y-124910365D01*
X96862150Y-124936610D01*
X96812738Y-124960869D01*
X96812736Y-124960870D01*
X96803390Y-124965459D01*
X96715073Y-125053931D01*
X96660174Y-125166241D01*
X96649500Y-125239410D01*
X96649500Y-125660590D01*
X96650170Y-125665140D01*
X96650170Y-125665143D01*
X96655772Y-125703194D01*
X96660365Y-125734396D01*
X96677605Y-125769509D01*
X96706452Y-125828264D01*
X96715459Y-125846610D01*
X96803931Y-125934927D01*
X96813284Y-125939499D01*
X96825051Y-125945251D01*
X96916241Y-125989826D01*
X96925916Y-125991237D01*
X96925918Y-125991238D01*
X96984883Y-125999840D01*
X96984889Y-125999840D01*
X96989410Y-126000500D01*
X97048500Y-126000500D01*
X97116621Y-126020502D01*
X97163114Y-126074158D01*
X97174500Y-126126500D01*
X97174500Y-126444276D01*
X97154498Y-126512397D01*
X97114523Y-126551593D01*
X97019533Y-126610031D01*
X96965881Y-126662572D01*
X96953162Y-126675027D01*
X96890497Y-126708398D01*
X96819738Y-126702592D01*
X96775598Y-126673787D01*
X96723973Y-126621800D01*
X96723968Y-126621796D01*
X96719006Y-126616799D01*
X96708342Y-126610031D01*
X96613985Y-126550151D01*
X96572108Y-126523575D01*
X96461871Y-126484321D01*
X96415043Y-126454717D01*
X96118792Y-126158466D01*
X96084766Y-126096154D01*
X96089831Y-126025339D01*
X96132378Y-125968503D01*
X96152349Y-125956272D01*
X96196610Y-125934541D01*
X96284927Y-125846069D01*
X96339826Y-125733759D01*
X96347006Y-125684541D01*
X96349840Y-125665117D01*
X96349840Y-125665111D01*
X96350500Y-125660590D01*
X96350500Y-125239410D01*
X96339635Y-125165604D01*
X96304989Y-125095038D01*
X96289131Y-125062738D01*
X96289130Y-125062736D01*
X96284541Y-125053390D01*
X96241038Y-125009963D01*
X96203438Y-124972429D01*
X96196069Y-124965073D01*
X96083759Y-124910174D01*
X96074084Y-124908763D01*
X96074082Y-124908762D01*
X96015117Y-124900160D01*
X96015111Y-124900160D01*
X96010590Y-124899500D01*
X94989410Y-124899500D01*
X94984860Y-124900170D01*
X94984857Y-124900170D01*
X94925290Y-124908939D01*
X94925289Y-124908939D01*
X94915604Y-124910365D01*
X94862150Y-124936610D01*
X94812738Y-124960869D01*
X94812736Y-124960870D01*
X94803390Y-124965459D01*
X94715073Y-125053931D01*
X94660174Y-125166241D01*
X94649500Y-125239410D01*
X94649500Y-125660590D01*
X94650170Y-125665140D01*
X94650170Y-125665143D01*
X94655772Y-125703194D01*
X94660365Y-125734396D01*
X94677605Y-125769509D01*
X94706452Y-125828264D01*
X94715459Y-125846610D01*
X94803931Y-125934927D01*
X94807518Y-125936680D01*
X94849050Y-125989579D01*
X94855743Y-126060259D01*
X94823161Y-126123338D01*
X94761560Y-126158809D01*
X94611639Y-126194940D01*
X94600344Y-126198829D01*
X94423137Y-126279400D01*
X94412795Y-126285347D01*
X94254013Y-126397979D01*
X94244984Y-126405772D01*
X94110369Y-126546393D01*
X94102965Y-126555768D01*
X93997380Y-126719292D01*
X93991879Y-126729906D01*
X93919117Y-126910449D01*
X93915725Y-126921898D01*
X93878134Y-127114391D01*
X93877064Y-127123201D01*
X93877000Y-127125828D01*
X93877000Y-127227885D01*
X93881475Y-127243124D01*
X93882865Y-127244329D01*
X93890548Y-127246000D01*
X95088000Y-127246000D01*
X95156121Y-127266002D01*
X95202614Y-127319658D01*
X95214000Y-127372000D01*
X95214000Y-127628000D01*
X95193998Y-127696121D01*
X95140342Y-127742614D01*
X95088000Y-127754000D01*
X93895115Y-127754000D01*
X93879876Y-127758475D01*
X93878671Y-127759865D01*
X93877000Y-127767548D01*
X93877000Y-127823637D01*
X93877285Y-127829613D01*
X93891132Y-127974745D01*
X93893391Y-127986480D01*
X93948188Y-128173268D01*
X93952623Y-128184355D01*
X94020326Y-128315808D01*
X94033735Y-128385526D01*
X94007322Y-128451427D01*
X93949474Y-128492586D01*
X93908310Y-128499500D01*
X93637080Y-128499500D01*
X93608845Y-128496295D01*
X93600359Y-128494344D01*
X93600358Y-128494344D01*
X93601441Y-128489633D01*
X93560281Y-128477547D01*
X93513788Y-128423891D01*
X93505557Y-128399568D01*
X93503655Y-128391229D01*
X93500500Y-128363210D01*
X93500500Y-126837371D01*
X93503755Y-126808918D01*
X93504043Y-126807676D01*
X93504044Y-126807669D01*
X93505655Y-126800718D01*
X93505656Y-126800000D01*
X93504038Y-126792903D01*
X93503298Y-126789662D01*
X93500935Y-126775750D01*
X93491831Y-126694953D01*
X93491039Y-126687924D01*
X93487356Y-126677397D01*
X93466151Y-126616799D01*
X93453788Y-126581467D01*
X93393783Y-126485969D01*
X93314031Y-126406217D01*
X93218533Y-126346212D01*
X93112076Y-126308961D01*
X93105049Y-126308169D01*
X93105048Y-126308169D01*
X93076449Y-126304947D01*
X93025322Y-126299186D01*
X93010989Y-126296726D01*
X93000718Y-126294345D01*
X93000000Y-126294344D01*
X92991225Y-126296346D01*
X92963210Y-126299500D01*
X90037080Y-126299500D01*
X90008845Y-126296295D01*
X90000359Y-126294344D01*
X90000358Y-126294344D01*
X90001441Y-126289633D01*
X89960281Y-126277547D01*
X89913788Y-126223891D01*
X89905557Y-126199568D01*
X89905389Y-126198829D01*
X89903655Y-126191227D01*
X89900500Y-126163210D01*
X89900500Y-125665016D01*
X89920502Y-125596895D01*
X89974158Y-125550402D01*
X90044432Y-125540298D01*
X90109012Y-125569792D01*
X90115595Y-125575921D01*
X90205889Y-125666215D01*
X90213316Y-125674319D01*
X90237545Y-125703194D01*
X90247094Y-125708707D01*
X90270185Y-125722039D01*
X90279456Y-125727945D01*
X90310316Y-125749554D01*
X90320966Y-125752408D01*
X90324134Y-125753885D01*
X90327410Y-125755077D01*
X90336955Y-125760588D01*
X90370699Y-125766538D01*
X90374058Y-125767130D01*
X90384785Y-125769508D01*
X90421193Y-125779264D01*
X90432169Y-125778304D01*
X90432172Y-125778304D01*
X90458743Y-125775979D01*
X90469724Y-125775500D01*
X90602041Y-125775500D01*
X90670162Y-125795502D01*
X90701779Y-125830962D01*
X90704807Y-125828794D01*
X90710869Y-125837261D01*
X90715459Y-125846610D01*
X90803931Y-125934927D01*
X90813284Y-125939499D01*
X90825051Y-125945251D01*
X90916241Y-125989826D01*
X90925916Y-125991237D01*
X90925918Y-125991238D01*
X90984883Y-125999840D01*
X90984889Y-125999840D01*
X90989410Y-126000500D01*
X92010590Y-126000500D01*
X92015140Y-125999830D01*
X92015143Y-125999830D01*
X92074710Y-125991061D01*
X92074711Y-125991061D01*
X92084396Y-125989635D01*
X92152359Y-125956267D01*
X92187262Y-125939131D01*
X92187265Y-125939129D01*
X92196610Y-125934541D01*
X92284927Y-125846069D01*
X92289501Y-125836711D01*
X92295477Y-125828333D01*
X92351319Y-125784489D01*
X92398057Y-125775500D01*
X92602041Y-125775500D01*
X92670162Y-125795502D01*
X92701779Y-125830962D01*
X92704807Y-125828794D01*
X92710869Y-125837261D01*
X92715459Y-125846610D01*
X92803931Y-125934927D01*
X92813284Y-125939499D01*
X92825051Y-125945251D01*
X92916241Y-125989826D01*
X92925916Y-125991237D01*
X92925918Y-125991238D01*
X92984883Y-125999840D01*
X92984889Y-125999840D01*
X92989410Y-126000500D01*
X94010590Y-126000500D01*
X94015140Y-125999830D01*
X94015143Y-125999830D01*
X94074710Y-125991061D01*
X94074711Y-125991061D01*
X94084396Y-125989635D01*
X94152359Y-125956267D01*
X94187262Y-125939131D01*
X94187265Y-125939129D01*
X94196610Y-125934541D01*
X94284927Y-125846069D01*
X94339826Y-125733759D01*
X94347006Y-125684541D01*
X94349840Y-125665117D01*
X94349840Y-125665111D01*
X94350500Y-125660590D01*
X94350500Y-125239410D01*
X94339635Y-125165604D01*
X94338447Y-125163185D01*
X94337396Y-125096083D01*
X94369738Y-125040589D01*
X94797922Y-124612405D01*
X94860234Y-124578379D01*
X94887017Y-124575500D01*
X98153877Y-124575500D01*
X98221998Y-124595502D01*
G37*
%TD.AperFunction*%
%TA.AperFunction,Conductor*%
G36*
X99801121Y-124766002D02*
G01*
X99847614Y-124819658D01*
X99859000Y-124872000D01*
X99859000Y-126064885D01*
X99863475Y-126080124D01*
X99864865Y-126081329D01*
X99872548Y-126083000D01*
X99928637Y-126083000D01*
X99934613Y-126082715D01*
X100079745Y-126068868D01*
X100091479Y-126066609D01*
X100260432Y-126017044D01*
X100331428Y-126017061D01*
X100391145Y-126055459D01*
X100420623Y-126120047D01*
X100420823Y-126154393D01*
X100406617Y-126262299D01*
X100407695Y-126270487D01*
X100424480Y-126397979D01*
X100427255Y-126419061D01*
X100487763Y-126565140D01*
X100492790Y-126571691D01*
X100492792Y-126571695D01*
X100511344Y-126595873D01*
X100536943Y-126662093D01*
X100522677Y-126731642D01*
X100473075Y-126782437D01*
X100411342Y-126798575D01*
X98834904Y-126798071D01*
X98806487Y-126794814D01*
X98798243Y-126792903D01*
X98797525Y-126792902D01*
X98786686Y-126795374D01*
X98772771Y-126797736D01*
X98685458Y-126807569D01*
X98678781Y-126809905D01*
X98678776Y-126809906D01*
X98585690Y-126842471D01*
X98585687Y-126842472D01*
X98579008Y-126844809D01*
X98483513Y-126904801D01*
X98478504Y-126909809D01*
X98422455Y-126965847D01*
X98360140Y-126999867D01*
X98289325Y-126994796D01*
X98232493Y-126952244D01*
X98214377Y-126918182D01*
X98208406Y-126901036D01*
X98203796Y-126887797D01*
X98111600Y-126740252D01*
X98074857Y-126703251D01*
X98034806Y-126662920D01*
X97989006Y-126616799D01*
X97983058Y-126613024D01*
X97883986Y-126550151D01*
X97837187Y-126496762D01*
X97825500Y-126443766D01*
X97825500Y-126126500D01*
X97845502Y-126058379D01*
X97899158Y-126011886D01*
X97951500Y-126000500D01*
X98010590Y-126000500D01*
X98015140Y-125999830D01*
X98015143Y-125999830D01*
X98074710Y-125991061D01*
X98074711Y-125991061D01*
X98084396Y-125989635D01*
X98152359Y-125956267D01*
X98187262Y-125939131D01*
X98187265Y-125939129D01*
X98196610Y-125934541D01*
X98284927Y-125846069D01*
X98309645Y-125795502D01*
X98324818Y-125764462D01*
X98372704Y-125712046D01*
X98441327Y-125693839D01*
X98508899Y-125715623D01*
X98525149Y-125728778D01*
X98651393Y-125849631D01*
X98660768Y-125857035D01*
X98824292Y-125962620D01*
X98834906Y-125968121D01*
X99015449Y-126040883D01*
X99026898Y-126044275D01*
X99219391Y-126081866D01*
X99228201Y-126082936D01*
X99230828Y-126083000D01*
X99332885Y-126083000D01*
X99348124Y-126078525D01*
X99349329Y-126077135D01*
X99351000Y-126069452D01*
X99351000Y-124872000D01*
X99371002Y-124803879D01*
X99424658Y-124757386D01*
X99477000Y-124746000D01*
X99733000Y-124746000D01*
X99801121Y-124766002D01*
G37*
%TD.AperFunction*%
%TA.AperFunction,Conductor*%
G36*
X101724716Y-122935450D02*
G01*
X101843238Y-122984544D01*
X102000000Y-123005182D01*
X102008188Y-123004104D01*
X102148574Y-122985622D01*
X102156762Y-122984544D01*
X102275283Y-122935451D01*
X102345871Y-122927862D01*
X102409358Y-122959641D01*
X102445586Y-123020699D01*
X102449500Y-123051860D01*
X102449500Y-123233218D01*
X102450170Y-123237768D01*
X102450170Y-123237771D01*
X102458216Y-123292426D01*
X102459642Y-123302112D01*
X102463958Y-123310902D01*
X102501758Y-123387892D01*
X102511068Y-123406855D01*
X102518438Y-123414212D01*
X102583691Y-123479351D01*
X102593650Y-123489293D01*
X102698482Y-123540536D01*
X102728973Y-123544984D01*
X102762256Y-123549840D01*
X102762260Y-123549840D01*
X102766782Y-123550500D01*
X103133218Y-123550500D01*
X103137768Y-123549830D01*
X103137771Y-123549830D01*
X103192426Y-123541784D01*
X103192427Y-123541784D01*
X103202112Y-123540358D01*
X103211408Y-123535794D01*
X103217971Y-123532572D01*
X103287935Y-123520506D01*
X103353316Y-123548180D01*
X103393356Y-123606809D01*
X103399500Y-123645676D01*
X103399500Y-124242155D01*
X103379498Y-124310276D01*
X103325842Y-124356769D01*
X103255568Y-124366873D01*
X103240553Y-124363495D01*
X103233759Y-124360174D01*
X103224080Y-124358762D01*
X103165117Y-124350160D01*
X103165111Y-124350160D01*
X103160590Y-124349500D01*
X102933598Y-124349500D01*
X102865477Y-124329498D01*
X102818984Y-124275842D01*
X102807986Y-124233381D01*
X102805570Y-124202664D01*
X102803270Y-124190069D01*
X102760893Y-124044210D01*
X102754648Y-124029779D01*
X102678089Y-123900322D01*
X102668449Y-123887896D01*
X102562104Y-123781551D01*
X102549678Y-123771911D01*
X102420221Y-123695352D01*
X102405790Y-123689107D01*
X102271395Y-123650061D01*
X102257294Y-123650101D01*
X102254000Y-123657370D01*
X102254000Y-124527885D01*
X102258475Y-124543124D01*
X102259865Y-124544329D01*
X102267548Y-124546000D01*
X102274763Y-124546000D01*
X102342884Y-124566002D01*
X102389377Y-124619658D01*
X102400433Y-124681117D01*
X102400159Y-124684891D01*
X102399500Y-124689410D01*
X102399500Y-124928000D01*
X102379498Y-124996121D01*
X102325842Y-125042614D01*
X102273500Y-125054000D01*
X102272115Y-125054000D01*
X102256876Y-125058475D01*
X102255671Y-125059865D01*
X102254000Y-125067548D01*
X102254000Y-125621145D01*
X102233998Y-125689266D01*
X102196684Y-125724845D01*
X102197159Y-125725464D01*
X102071718Y-125821718D01*
X102066695Y-125828264D01*
X101992972Y-125924342D01*
X101975464Y-125947159D01*
X101972977Y-125945251D01*
X101932346Y-125983993D01*
X101874609Y-125998000D01*
X101872000Y-125998000D01*
X101803879Y-125977998D01*
X101757386Y-125924342D01*
X101746000Y-125872000D01*
X101746000Y-125072115D01*
X101741525Y-125056876D01*
X101740135Y-125055671D01*
X101732452Y-125054000D01*
X101726500Y-125054000D01*
X101658379Y-125033998D01*
X101611886Y-124980342D01*
X101600500Y-124928000D01*
X101600500Y-124689410D01*
X101599830Y-124684859D01*
X101599562Y-124681196D01*
X101614539Y-124611797D01*
X101664659Y-124561512D01*
X101725226Y-124546000D01*
X101727885Y-124546000D01*
X101743124Y-124541525D01*
X101744329Y-124540135D01*
X101746000Y-124532452D01*
X101746000Y-123663122D01*
X101742027Y-123649591D01*
X101734129Y-123648456D01*
X101594210Y-123689107D01*
X101579773Y-123695355D01*
X101566567Y-123703164D01*
X101497751Y-123720622D01*
X101430420Y-123698103D01*
X101385952Y-123642758D01*
X101377287Y-123586180D01*
X101379263Y-123578807D01*
X101378302Y-123567826D01*
X101379134Y-123558324D01*
X101404999Y-123492206D01*
X101415481Y-123480291D01*
X101481935Y-123413721D01*
X101481935Y-123413720D01*
X101489293Y-123406350D01*
X101498316Y-123387892D01*
X101509730Y-123364540D01*
X101540536Y-123301518D01*
X101550500Y-123233218D01*
X101550500Y-123051860D01*
X101570502Y-122983739D01*
X101624158Y-122937246D01*
X101694432Y-122927142D01*
X101724716Y-122935450D01*
G37*
%TD.AperFunction*%
%TA.AperFunction,Conductor*%
G36*
X101145882Y-124023843D02*
G01*
X101194563Y-124075522D01*
X101207577Y-124145316D01*
X101203219Y-124167730D01*
X101196733Y-124190056D01*
X101194430Y-124202666D01*
X101192012Y-124233387D01*
X101166726Y-124299728D01*
X101109588Y-124341867D01*
X101066400Y-124349500D01*
X100839410Y-124349500D01*
X100834860Y-124350170D01*
X100834844Y-124350171D01*
X100831598Y-124350649D01*
X100830473Y-124350491D01*
X100830256Y-124350507D01*
X100830253Y-124350460D01*
X100761291Y-124340779D01*
X100710483Y-124298893D01*
X100707023Y-124294016D01*
X100699228Y-124284985D01*
X100686205Y-124272518D01*
X100650829Y-124210963D01*
X100654348Y-124140053D01*
X100695645Y-124082303D01*
X100761608Y-124056047D01*
X100773336Y-124055500D01*
X100850290Y-124055500D01*
X100861272Y-124055980D01*
X100887820Y-124058303D01*
X100887822Y-124058303D01*
X100898807Y-124059264D01*
X100935215Y-124049508D01*
X100945942Y-124047130D01*
X100949301Y-124046538D01*
X100983045Y-124040588D01*
X100992590Y-124035077D01*
X100995866Y-124033885D01*
X100999034Y-124032408D01*
X101009684Y-124029554D01*
X101018716Y-124023230D01*
X101028706Y-124018571D01*
X101030518Y-124022457D01*
X101076989Y-124006688D01*
X101145882Y-124023843D01*
G37*
%TD.AperFunction*%
%TA.AperFunction,Conductor*%
G36*
X96910262Y-119797408D02*
G01*
X96954402Y-119826213D01*
X97006027Y-119878200D01*
X97006031Y-119878203D01*
X97010994Y-119883201D01*
X97016940Y-119886975D01*
X97016942Y-119886976D01*
X97116014Y-119949849D01*
X97162813Y-120003238D01*
X97174500Y-120056234D01*
X97174500Y-120548521D01*
X97154498Y-120616642D01*
X97100842Y-120663135D01*
X97097700Y-120664358D01*
X97091874Y-120665281D01*
X96971780Y-120726472D01*
X96876472Y-120821780D01*
X96815281Y-120941874D01*
X96813731Y-120951663D01*
X96813730Y-120951665D01*
X96813326Y-120954218D01*
X96799500Y-121041512D01*
X96799500Y-121958488D01*
X96815281Y-122058126D01*
X96876472Y-122178220D01*
X96971780Y-122273528D01*
X96980613Y-122278028D01*
X96980612Y-122278028D01*
X97055703Y-122316289D01*
X97107318Y-122365037D01*
X97124500Y-122428556D01*
X97124500Y-122430290D01*
X97124020Y-122441272D01*
X97120736Y-122478807D01*
X97128348Y-122507212D01*
X97130491Y-122515210D01*
X97132870Y-122525942D01*
X97139412Y-122563045D01*
X97144923Y-122572590D01*
X97146115Y-122575866D01*
X97147592Y-122579034D01*
X97150446Y-122589684D01*
X97156771Y-122598716D01*
X97161429Y-122608706D01*
X97157690Y-122610450D01*
X97174500Y-122663764D01*
X97174500Y-122873500D01*
X97154498Y-122941621D01*
X97100842Y-122988114D01*
X97048500Y-122999500D01*
X96989410Y-122999500D01*
X96984860Y-123000170D01*
X96984857Y-123000170D01*
X96925290Y-123008939D01*
X96925289Y-123008939D01*
X96915604Y-123010365D01*
X96862150Y-123036610D01*
X96812738Y-123060869D01*
X96812736Y-123060870D01*
X96803390Y-123065459D01*
X96796032Y-123072830D01*
X96747263Y-123121685D01*
X96715073Y-123153931D01*
X96710499Y-123163289D01*
X96704523Y-123171667D01*
X96648681Y-123215511D01*
X96601943Y-123224500D01*
X96397959Y-123224500D01*
X96329838Y-123204498D01*
X96298221Y-123169038D01*
X96295193Y-123171206D01*
X96289131Y-123162739D01*
X96284541Y-123153390D01*
X96196069Y-123065073D01*
X96083759Y-123010174D01*
X96074084Y-123008763D01*
X96074082Y-123008762D01*
X96015117Y-123000160D01*
X96015111Y-123000160D01*
X96010590Y-122999500D01*
X94989410Y-122999500D01*
X94984860Y-123000170D01*
X94984857Y-123000170D01*
X94925290Y-123008939D01*
X94925289Y-123008939D01*
X94915604Y-123010365D01*
X94862150Y-123036610D01*
X94812738Y-123060869D01*
X94812736Y-123060870D01*
X94803390Y-123065459D01*
X94796032Y-123072830D01*
X94747263Y-123121685D01*
X94715073Y-123153931D01*
X94710499Y-123163289D01*
X94704523Y-123171667D01*
X94648681Y-123215511D01*
X94601943Y-123224500D01*
X94397959Y-123224500D01*
X94329838Y-123204498D01*
X94298221Y-123169038D01*
X94295193Y-123171206D01*
X94289131Y-123162739D01*
X94284541Y-123153390D01*
X94196069Y-123065073D01*
X94083759Y-123010174D01*
X94074084Y-123008763D01*
X94074082Y-123008762D01*
X94015117Y-123000160D01*
X94015111Y-123000160D01*
X94010590Y-122999500D01*
X93766877Y-122999500D01*
X93698756Y-122979498D01*
X93652263Y-122925842D01*
X93642159Y-122855568D01*
X93671653Y-122790988D01*
X93685886Y-122776978D01*
X93694749Y-122769541D01*
X93703194Y-122762455D01*
X93712646Y-122746083D01*
X93722039Y-122729815D01*
X93727945Y-122720544D01*
X93743230Y-122698715D01*
X93749554Y-122689684D01*
X93752408Y-122679034D01*
X93753885Y-122675866D01*
X93755077Y-122672590D01*
X93760588Y-122663045D01*
X93767130Y-122625942D01*
X93769509Y-122615210D01*
X93779264Y-122578807D01*
X93775979Y-122541257D01*
X93775500Y-122530276D01*
X93775500Y-122428556D01*
X93795502Y-122360435D01*
X93844297Y-122316289D01*
X93919388Y-122278028D01*
X93919387Y-122278028D01*
X93928220Y-122273528D01*
X94023528Y-122178220D01*
X94084719Y-122058126D01*
X94098607Y-121970438D01*
X94592000Y-121970438D01*
X94592337Y-121976953D01*
X94601894Y-122069057D01*
X94604788Y-122082456D01*
X94654381Y-122231107D01*
X94660555Y-122244286D01*
X94742788Y-122377173D01*
X94751824Y-122388574D01*
X94862429Y-122498986D01*
X94873840Y-122507998D01*
X95006880Y-122590004D01*
X95020061Y-122596151D01*
X95168814Y-122645491D01*
X95182190Y-122648358D01*
X95273097Y-122657672D01*
X95278126Y-122657929D01*
X95293124Y-122653525D01*
X95294329Y-122652135D01*
X95296000Y-122644452D01*
X95296000Y-122639885D01*
X95804000Y-122639885D01*
X95808475Y-122655124D01*
X95809865Y-122656329D01*
X95817548Y-122658000D01*
X95820438Y-122658000D01*
X95826953Y-122657663D01*
X95919057Y-122648106D01*
X95932456Y-122645212D01*
X96081107Y-122595619D01*
X96094286Y-122589445D01*
X96227173Y-122507212D01*
X96238574Y-122498176D01*
X96348986Y-122387571D01*
X96357998Y-122376160D01*
X96440004Y-122243120D01*
X96446151Y-122229939D01*
X96495491Y-122081186D01*
X96498358Y-122067810D01*
X96507672Y-121976903D01*
X96508000Y-121970487D01*
X96508000Y-121772115D01*
X96503525Y-121756876D01*
X96502135Y-121755671D01*
X96494452Y-121754000D01*
X95822115Y-121754000D01*
X95806876Y-121758475D01*
X95805671Y-121759865D01*
X95804000Y-121767548D01*
X95804000Y-122639885D01*
X95296000Y-122639885D01*
X95296000Y-121772115D01*
X95291525Y-121756876D01*
X95290135Y-121755671D01*
X95282452Y-121754000D01*
X94610115Y-121754000D01*
X94594876Y-121758475D01*
X94593671Y-121759865D01*
X94592000Y-121767548D01*
X94592000Y-121970438D01*
X94098607Y-121970438D01*
X94100500Y-121958488D01*
X94100500Y-121041512D01*
X94086674Y-120954218D01*
X94095774Y-120883807D01*
X94122029Y-120845410D01*
X94128863Y-120838577D01*
X94155516Y-120811923D01*
X94217830Y-120777899D01*
X94244611Y-120775020D01*
X94479461Y-120775020D01*
X94547582Y-120795022D01*
X94594075Y-120848678D01*
X94604179Y-120918952D01*
X94602661Y-120927435D01*
X94601642Y-120932188D01*
X94592328Y-121023097D01*
X94592000Y-121029514D01*
X94592000Y-121227885D01*
X94596475Y-121243124D01*
X94597865Y-121244329D01*
X94605548Y-121246000D01*
X96489885Y-121246000D01*
X96505124Y-121241525D01*
X96506329Y-121240135D01*
X96508000Y-121232452D01*
X96508000Y-121029562D01*
X96507663Y-121023047D01*
X96498106Y-120930943D01*
X96495212Y-120917544D01*
X96445619Y-120768893D01*
X96439445Y-120755714D01*
X96357212Y-120622827D01*
X96348176Y-120611426D01*
X96237571Y-120501014D01*
X96226160Y-120492002D01*
X96093120Y-120409996D01*
X96079939Y-120403849D01*
X95931186Y-120354509D01*
X95917809Y-120351641D01*
X95907544Y-120350590D01*
X95841816Y-120323751D01*
X95801032Y-120265637D01*
X95798142Y-120194699D01*
X95831288Y-120136151D01*
X95907612Y-120059827D01*
X95969924Y-120025801D01*
X96038979Y-120030225D01*
X96051793Y-120034788D01*
X96224552Y-120055388D01*
X96231555Y-120054652D01*
X96231556Y-120054652D01*
X96277891Y-120049782D01*
X96397581Y-120037202D01*
X96404247Y-120034933D01*
X96404250Y-120034932D01*
X96555614Y-119983403D01*
X96555617Y-119983402D01*
X96562281Y-119981133D01*
X96710467Y-119889969D01*
X96776839Y-119824972D01*
X96839503Y-119791602D01*
X96910262Y-119797408D01*
G37*
%TD.AperFunction*%
%TA.AperFunction,Conductor*%
G36*
X93660696Y-120170022D02*
G01*
X93707189Y-120223678D01*
X93717293Y-120293952D01*
X93687799Y-120358532D01*
X93681671Y-120365115D01*
X93434192Y-120612595D01*
X93371879Y-120646620D01*
X93345096Y-120649500D01*
X93191512Y-120649500D01*
X93131149Y-120659060D01*
X93101665Y-120663730D01*
X93101663Y-120663731D01*
X93091874Y-120665281D01*
X92971780Y-120726472D01*
X92876472Y-120821780D01*
X92815281Y-120941874D01*
X92813731Y-120951663D01*
X92813730Y-120951665D01*
X92813326Y-120954218D01*
X92799500Y-121041512D01*
X92799500Y-121958488D01*
X92815281Y-122058126D01*
X92876472Y-122178220D01*
X92907657Y-122209405D01*
X92941683Y-122271717D01*
X92936618Y-122342532D01*
X92894071Y-122399368D01*
X92827551Y-122424179D01*
X92818562Y-122424500D01*
X92553206Y-122424500D01*
X92485085Y-122404498D01*
X92438592Y-122350842D01*
X92428488Y-122280568D01*
X92439012Y-122245249D01*
X92446150Y-122229943D01*
X92495491Y-122081186D01*
X92498358Y-122067810D01*
X92507672Y-121976903D01*
X92508000Y-121970487D01*
X92508000Y-121772115D01*
X92503525Y-121756876D01*
X92502135Y-121755671D01*
X92494452Y-121754000D01*
X91422000Y-121754000D01*
X91353879Y-121733998D01*
X91307386Y-121680342D01*
X91296000Y-121628000D01*
X91296000Y-121372000D01*
X91316002Y-121303879D01*
X91369658Y-121257386D01*
X91422000Y-121246000D01*
X92489885Y-121246000D01*
X92505124Y-121241525D01*
X92506329Y-121240135D01*
X92508000Y-121232452D01*
X92508000Y-121029562D01*
X92507663Y-121023047D01*
X92498106Y-120930943D01*
X92495212Y-120917544D01*
X92445619Y-120768893D01*
X92439445Y-120755714D01*
X92357212Y-120622827D01*
X92348176Y-120611426D01*
X92237571Y-120501014D01*
X92226160Y-120492002D01*
X92093120Y-120409996D01*
X92079937Y-120403848D01*
X92055109Y-120395613D01*
X91996749Y-120355182D01*
X91969512Y-120289618D01*
X91982046Y-120219736D01*
X92030370Y-120167725D01*
X92094776Y-120150020D01*
X93592575Y-120150020D01*
X93660696Y-120170022D01*
G37*
%TD.AperFunction*%
%TD*%
M02*
